<svg width="610" height="430" viewBox="0 0 610 430" fill="none" xmlns="http://www.w3.org/2000/svg">
<mask id="path-1-inside-1_1_6316" fill="white">
<path d="M0 0H610V430H0V0Z"/>
</mask>
<path d="M0 4H610V-4H0V4Z" fill="#1A0AD7" mask="url(#path-1-inside-1_1_6316)"/>
<path d="M13.88 74.6C12.2267 74.6 10.68 74.4 9.24 74C7.8 73.5733 6.54667 72.92 5.48 72.04C4.44 71.1333 3.61333 69.9867 3 68.6C2.38667 67.2133 2.08 65.5467 2.08 63.6V45.28H9.52V62.6C9.52 63.6133 9.62667 64.4667 9.84 65.16C10.08 65.8267 10.3867 66.36 10.76 66.76C11.16 67.16 11.6267 67.4533 12.16 67.64C12.6933 67.8 13.2667 67.88 13.88 67.88C14.4933 67.88 15.0667 67.8 15.6 67.64C16.1333 67.4533 16.5867 67.16 16.96 66.76C17.36 66.36 17.6667 65.8267 17.88 65.16C18.12 64.4667 18.24 63.6133 18.24 62.6V45.28H25.68V63.6C25.68 65.5467 25.3733 67.2133 24.76 68.6C24.1467 69.9867 23.3067 71.1333 22.24 72.04C21.2 72.92 19.96 73.5733 18.52 74C17.08 74.4 15.5333 74.6 13.88 74.6ZM39.8134 74.6C38.2401 74.6 36.7468 74.4 35.3334 74C33.9468 73.6 32.7068 73.0267 31.6134 72.28C30.5468 71.5067 29.6534 70.56 28.9334 69.44C28.2401 68.32 27.7868 67.04 27.5734 65.6L34.9334 64.04C35.3334 65.6667 35.9601 66.8267 36.8134 67.52C37.6668 68.2133 38.7068 68.56 39.9334 68.56C40.9734 68.56 41.7734 68.3467 42.3334 67.92C42.8934 67.4933 43.1734 66.8933 43.1734 66.12C43.1734 65.64 43.0268 65.2267 42.7334 64.88C42.4668 64.5333 42.0934 64.2267 41.6134 63.96C41.1334 63.6667 40.5734 63.4133 39.9334 63.2C39.3201 62.96 38.6534 62.72 37.9334 62.48C36.8934 62.1333 35.8268 61.7467 34.7334 61.32C33.6401 60.8933 32.6401 60.3467 31.7334 59.68C30.8268 59.0133 30.0801 58.1867 29.4934 57.2C28.9334 56.1867 28.6534 54.9333 28.6534 53.44C28.6534 52.1067 28.9068 50.9067 29.4134 49.84C29.9468 48.7733 30.6668 47.8533 31.5734 47.08C32.5068 46.3067 33.6134 45.72 34.8934 45.32C36.2001 44.8933 37.6268 44.68 39.1734 44.68C40.4268 44.68 41.6801 44.8267 42.9334 45.12C44.2134 45.4133 45.3868 45.88 46.4534 46.52C47.5468 47.16 48.4801 48 49.2534 49.04C50.0534 50.0533 50.6001 51.3067 50.8934 52.8L44.2134 54.32C43.7601 53.0667 43.1734 52.16 42.4534 51.6C41.7601 51.0133 40.8268 50.72 39.6534 50.72C38.6401 50.72 37.8001 50.92 37.1334 51.32C36.4934 51.72 36.1734 52.28 36.1734 53C36.1734 53.4 36.2934 53.7467 36.5334 54.04C36.8001 54.3067 37.1468 54.56 37.5734 54.8C38.0268 55.0133 38.5334 55.2133 39.0934 55.4C39.6801 55.5867 40.3068 55.7867 40.9734 56C42.0668 56.32 43.1868 56.6933 44.3334 57.12C45.5068 57.5467 46.5734 58.1067 47.5334 58.8C48.5201 59.4933 49.3201 60.3867 49.9334 61.48C50.5734 62.5467 50.8934 63.9067 50.8934 65.56C50.8934 66.92 50.6268 68.16 50.0934 69.28C49.5601 70.3733 48.8134 71.32 47.8534 72.12C46.8934 72.92 45.7334 73.5333 44.3734 73.96C43.0134 74.3867 41.4934 74.6 39.8134 74.6ZM71.9009 51.76H61.9009V56.44H70.8209V62.84H61.9009V67.52H71.9009V74H54.4609V45.28H71.9009V51.76ZM86.1312 74V45.28H95.6912C98.0912 45.28 100.105 45.5067 101.731 45.96C103.358 46.3867 104.771 47.0133 105.971 47.84C107.731 49.0933 109.038 50.72 109.891 52.72C110.771 54.72 111.211 57.0267 111.211 59.64C111.211 62.2533 110.771 64.56 109.891 66.56C109.038 68.56 107.731 70.1867 105.971 71.44C104.771 72.2667 103.358 72.9067 101.731 73.36C100.105 73.7867 98.0912 74 95.6912 74H86.1312ZM93.5712 67.52H95.6512C97.7046 67.52 99.3979 67.08 100.731 66.2C101.745 65.5333 102.505 64.64 103.011 63.52C103.518 62.4 103.771 61.1067 103.771 59.64C103.771 58.1733 103.518 56.88 103.011 55.76C102.505 54.64 101.745 53.7467 100.731 53.08C99.3979 52.2 97.7046 51.76 95.6512 51.76H93.5712V67.52ZM128.361 74.6C126.201 74.6 124.201 74.24 122.361 73.52C120.548 72.8 118.975 71.7867 117.641 70.48C116.335 69.1467 115.308 67.56 114.561 65.72C113.815 63.88 113.441 61.8533 113.441 59.64C113.441 57.4267 113.815 55.4 114.561 53.56C115.308 51.72 116.335 50.1467 117.641 48.84C118.975 47.5067 120.548 46.48 122.361 45.76C124.201 45.04 126.201 44.68 128.361 44.68C130.521 44.68 132.508 45.04 134.321 45.76C136.161 46.48 137.735 47.5067 139.041 48.84C140.375 50.1467 141.415 51.72 142.161 53.56C142.908 55.4 143.281 57.4267 143.281 59.64C143.281 61.8533 142.908 63.88 142.161 65.72C141.415 67.56 140.375 69.1467 139.041 70.48C137.735 71.7867 136.161 72.8 134.321 73.52C132.508 74.24 130.521 74.6 128.361 74.6ZM128.361 67.8C129.455 67.8 130.455 67.6133 131.361 67.24C132.268 66.84 133.055 66.28 133.721 65.56C134.388 64.84 134.908 63.9867 135.281 63C135.655 61.9867 135.841 60.8667 135.841 59.64C135.841 58.4133 135.655 57.3067 135.281 56.32C134.908 55.3067 134.388 54.44 133.721 53.72C133.055 53 132.268 52.4533 131.361 52.08C130.455 51.68 129.455 51.48 128.361 51.48C127.295 51.48 126.295 51.68 125.361 52.08C124.455 52.4533 123.668 53 123.001 53.72C122.335 54.44 121.815 55.3067 121.441 56.32C121.068 57.3067 120.881 58.4133 120.881 59.64C120.881 60.8667 121.068 61.9867 121.441 63C121.815 63.9867 122.335 64.84 123.001 65.56C123.668 66.28 124.455 66.84 125.361 67.24C126.295 67.6133 127.295 67.8 128.361 67.8ZM160.31 74.6C158.15 74.6 156.15 74.24 154.31 73.52C152.496 72.8 150.923 71.7867 149.59 70.48C148.283 69.1467 147.256 67.56 146.51 65.72C145.763 63.88 145.39 61.8533 145.39 59.64C145.39 57.4267 145.763 55.4 146.51 53.56C147.256 51.72 148.283 50.1467 149.59 48.84C150.923 47.5067 152.496 46.48 154.31 45.76C156.15 45.04 158.15 44.68 160.31 44.68C162.016 44.68 163.616 44.9067 165.11 45.36C166.603 45.8133 167.95 46.4667 169.15 47.32C170.376 48.1467 171.43 49.16 172.31 50.36C173.216 51.5333 173.91 52.8533 174.39 54.32L167.39 56.8C166.91 55.1467 166.043 53.8533 164.79 52.92C163.536 51.96 162.043 51.48 160.31 51.48C159.243 51.48 158.243 51.68 157.31 52.08C156.403 52.4533 155.616 53 154.95 53.72C154.283 54.44 153.763 55.3067 153.39 56.32C153.016 57.3067 152.83 58.4133 152.83 59.64C152.83 60.8667 153.016 61.9867 153.39 63C153.763 63.9867 154.283 64.84 154.95 65.56C155.616 66.28 156.403 66.84 157.31 67.24C158.243 67.6133 159.243 67.8 160.31 67.8C162.043 67.8 163.536 67.3333 164.79 66.4C166.043 65.44 166.91 64.1333 167.39 62.48L174.39 64.96C173.91 66.4267 173.216 67.76 172.31 68.96C171.43 70.1333 170.376 71.1467 169.15 72C167.95 72.8267 166.603 73.4667 165.11 73.92C163.616 74.3733 162.016 74.6 160.31 74.6ZM188.964 74.6C187.311 74.6 185.764 74.4 184.324 74C182.884 73.5733 181.631 72.92 180.564 72.04C179.524 71.1333 178.698 69.9867 178.084 68.6C177.471 67.2133 177.164 65.5467 177.164 63.6V45.28H184.604V62.6C184.604 63.6133 184.711 64.4667 184.924 65.16C185.164 65.8267 185.471 66.36 185.844 66.76C186.244 67.16 186.711 67.4533 187.244 67.64C187.778 67.8 188.351 67.88 188.964 67.88C189.578 67.88 190.151 67.8 190.684 67.64C191.218 67.4533 191.671 67.16 192.044 66.76C192.444 66.36 192.751 65.8267 192.964 65.16C193.204 64.4667 193.324 63.6133 193.324 62.6V45.28H200.764V63.6C200.764 65.5467 200.458 67.2133 199.844 68.6C199.231 69.9867 198.391 71.1333 197.324 72.04C196.284 72.92 195.044 73.5733 193.604 74C192.164 74.4 190.618 74.6 188.964 74.6ZM205.058 74V45.28H212.498V56.4H223.098V45.28H230.538V74H223.098V62.8H212.498V74H205.058ZM252.571 51.76H242.571V56.44H251.491V62.84H242.571V67.52H252.571V74H235.131V45.28H252.571V51.76ZM256.611 74V45.28H264.051V67.52H272.451V74H256.611ZM293.646 47.68C294.446 48.3733 295.072 49.2667 295.526 50.36C296.006 51.4533 296.246 52.7867 296.246 54.36C296.246 56.2 295.899 57.8933 295.206 59.44C294.512 60.96 293.406 62.1333 291.886 62.96C291.299 63.28 290.672 63.5333 290.006 63.72C289.339 63.9067 288.686 64.04 288.046 64.12C287.406 64.2 286.806 64.2533 286.246 64.28C285.686 64.28 285.206 64.28 284.806 64.28H282.406V74H274.966V45.28H284.806C286.966 45.28 288.739 45.48 290.126 45.88C291.539 46.28 292.712 46.88 293.646 47.68ZM287.886 57.28C288.499 56.8 288.806 55.9733 288.806 54.8C288.806 54.1333 288.712 53.6 288.526 53.2C288.339 52.7733 288.072 52.44 287.726 52.2C287.192 51.8267 286.539 51.6133 285.766 51.56C284.992 51.48 284.312 51.44 283.726 51.44H282.406V58.12H283.726C283.992 58.12 284.312 58.12 284.686 58.12C285.059 58.0933 285.432 58.0533 285.806 58C286.206 57.9467 286.579 57.8667 286.926 57.76C287.299 57.6533 287.619 57.4933 287.886 57.28ZM327.767 45.28V51.76H321.327V74H313.887V51.76H307.407V45.28H327.767ZM343.749 74.6C341.589 74.6 339.589 74.24 337.749 73.52C335.935 72.8 334.362 71.7867 333.029 70.48C331.722 69.1467 330.695 67.56 329.949 65.72C329.202 63.88 328.829 61.8533 328.829 59.64C328.829 57.4267 329.202 55.4 329.949 53.56C330.695 51.72 331.722 50.1467 333.029 48.84C334.362 47.5067 335.935 46.48 337.749 45.76C339.589 45.04 341.589 44.68 343.749 44.68C345.909 44.68 347.895 45.04 349.709 45.76C351.549 46.48 353.122 47.5067 354.429 48.84C355.762 50.1467 356.802 51.72 357.549 53.56C358.295 55.4 358.669 57.4267 358.669 59.64C358.669 61.8533 358.295 63.88 357.549 65.72C356.802 67.56 355.762 69.1467 354.429 70.48C353.122 71.7867 351.549 72.8 349.709 73.52C347.895 74.24 345.909 74.6 343.749 74.6ZM343.749 67.8C344.842 67.8 345.842 67.6133 346.749 67.24C347.655 66.84 348.442 66.28 349.109 65.56C349.775 64.84 350.295 63.9867 350.669 63C351.042 61.9867 351.229 60.8667 351.229 59.64C351.229 58.4133 351.042 57.3067 350.669 56.32C350.295 55.3067 349.775 54.44 349.109 53.72C348.442 53 347.655 52.4533 346.749 52.08C345.842 51.68 344.842 51.48 343.749 51.48C342.682 51.48 341.682 51.68 340.749 52.08C339.842 52.4533 339.055 53 338.389 53.72C337.722 54.44 337.202 55.3067 336.829 56.32C336.455 57.3067 336.269 58.4133 336.269 59.64C336.269 60.8667 336.455 61.9867 336.829 63C337.202 63.9867 337.722 64.84 338.389 65.56C339.055 66.28 339.842 66.84 340.749 67.24C341.682 67.6133 342.682 67.8 343.749 67.8ZM405.648 45.28H413.328L406.288 74H396.448L391.728 59.04L387.048 74H377.208L370.168 45.28H377.848L382.728 65.84L388.648 45.28H394.848L400.728 65.84L405.648 45.28ZM439.635 74H430.555L423.315 62.88V74H415.875V45.28H425.715C427.875 45.28 429.648 45.48 431.035 45.88C432.448 46.28 433.622 46.88 434.555 47.68C435.355 48.3733 435.982 49.2667 436.435 50.36C436.915 51.4533 437.155 52.7867 437.155 54.36C437.155 55.96 436.808 57.48 436.115 58.92C435.422 60.36 434.315 61.4533 432.795 62.2C432.608 62.28 432.422 62.36 432.235 62.44C432.075 62.52 431.902 62.5867 431.715 62.64L439.635 74ZM428.635 52.2C428.102 51.8267 427.448 51.6133 426.675 51.56C425.902 51.48 425.222 51.44 424.635 51.44H423.315V58.12H424.635C424.902 58.12 425.222 58.12 425.595 58.12C425.968 58.0933 426.342 58.0533 426.715 58C427.115 57.9467 427.488 57.8667 427.835 57.76C428.208 57.6533 428.528 57.4933 428.795 57.28C429.408 56.8 429.715 55.9733 429.715 54.8C429.715 54.1333 429.622 53.6 429.435 53.2C429.248 52.7733 428.982 52.44 428.635 52.2ZM442.12 74V45.28H449.56V74H442.12ZM472.427 45.28V51.76H465.987V74H458.547V51.76H452.067V45.28H472.427ZM492.403 51.76H482.403V56.44H491.323V62.84H482.403V67.52H492.403V74H474.963V45.28H492.403V51.76ZM2.4 130V101.28H11.96C14.36 101.28 16.3733 101.507 18 101.96C19.6267 102.387 21.04 103.013 22.24 103.84C24 105.093 25.3067 106.72 26.16 108.72C27.04 110.72 27.48 113.027 27.48 115.64C27.48 118.253 27.04 120.56 26.16 122.56C25.3067 124.56 24 126.187 22.24 127.44C21.04 128.267 19.6267 128.907 18 129.36C16.3733 129.787 14.36 130 11.96 130H2.4ZM9.84 123.52H11.92C13.9733 123.52 15.6667 123.08 17 122.2C18.0133 121.533 18.7733 120.64 19.28 119.52C19.7867 118.4 20.04 117.107 20.04 115.64C20.04 114.173 19.7867 112.88 19.28 111.76C18.7733 110.64 18.0133 109.747 17 109.08C15.6667 108.2 13.9733 107.76 11.92 107.76H9.84V123.52ZM44.63 130.6C42.47 130.6 40.47 130.24 38.63 129.52C36.8167 128.8 35.2433 127.787 33.91 126.48C32.6033 125.147 31.5767 123.56 30.83 121.72C30.0833 119.88 29.71 117.853 29.71 115.64C29.71 113.427 30.0833 111.4 30.83 109.56C31.5767 107.72 32.6033 106.147 33.91 104.84C35.2433 103.507 36.8167 102.48 38.63 101.76C40.47 101.04 42.47 100.68 44.63 100.68C46.79 100.68 48.7767 101.04 50.59 101.76C52.43 102.48 54.0033 103.507 55.31 104.84C56.6433 106.147 57.6833 107.72 58.43 109.56C59.1767 111.4 59.55 113.427 59.55 115.64C59.55 117.853 59.1767 119.88 58.43 121.72C57.6833 123.56 56.6433 125.147 55.31 126.48C54.0033 127.787 52.43 128.8 50.59 129.52C48.7767 130.24 46.79 130.6 44.63 130.6ZM44.63 123.8C45.7233 123.8 46.7233 123.613 47.63 123.24C48.5367 122.84 49.3233 122.28 49.99 121.56C50.6567 120.84 51.1767 119.987 51.55 119C51.9233 117.987 52.11 116.867 52.11 115.64C52.11 114.413 51.9233 113.307 51.55 112.32C51.1767 111.307 50.6567 110.44 49.99 109.72C49.3233 109 48.5367 108.453 47.63 108.08C46.7233 107.68 45.7233 107.48 44.63 107.48C43.5633 107.48 42.5633 107.68 41.63 108.08C40.7233 108.453 39.9367 109 39.27 109.72C38.6033 110.44 38.0833 111.307 37.71 112.32C37.3367 113.307 37.15 114.413 37.15 115.64C37.15 116.867 37.3367 117.987 37.71 119C38.0833 119.987 38.6033 120.84 39.27 121.56C39.9367 122.28 40.7233 122.84 41.63 123.24C42.5633 123.613 43.5633 123.8 44.63 123.8ZM76.5784 130.6C74.4184 130.6 72.4184 130.24 70.5784 129.52C68.7651 128.8 67.1918 127.787 65.8584 126.48C64.5518 125.147 63.5251 123.56 62.7784 121.72C62.0318 119.88 61.6584 117.853 61.6584 115.64C61.6584 113.427 62.0318 111.4 62.7784 109.56C63.5251 107.72 64.5518 106.147 65.8584 104.84C67.1918 103.507 68.7651 102.48 70.5784 101.76C72.4184 101.04 74.4184 100.68 76.5784 100.68C78.2851 100.68 79.8851 100.907 81.3784 101.36C82.8718 101.813 84.2184 102.467 85.4184 103.32C86.6451 104.147 87.6984 105.16 88.5784 106.36C89.4851 107.533 90.1784 108.853 90.6584 110.32L83.6584 112.8C83.1784 111.147 82.3118 109.853 81.0584 108.92C79.8051 107.96 78.3118 107.48 76.5784 107.48C75.5118 107.48 74.5118 107.68 73.5784 108.08C72.6718 108.453 71.8851 109 71.2184 109.72C70.5518 110.44 70.0318 111.307 69.6584 112.32C69.2851 113.307 69.0984 114.413 69.0984 115.64C69.0984 116.867 69.2851 117.987 69.6584 119C70.0318 119.987 70.5518 120.84 71.2184 121.56C71.8851 122.28 72.6718 122.84 73.5784 123.24C74.5118 123.613 75.5118 123.8 76.5784 123.8C78.3118 123.8 79.8051 123.333 81.0584 122.4C82.3118 121.44 83.1784 120.133 83.6584 118.48L90.6584 120.96C90.1784 122.427 89.4851 123.76 88.5784 124.96C87.6984 126.133 86.6451 127.147 85.4184 128C84.2184 128.827 82.8718 129.467 81.3784 129.92C79.8851 130.373 78.2851 130.6 76.5784 130.6ZM105.233 130.6C103.58 130.6 102.033 130.4 100.593 130C99.1531 129.573 97.8998 128.92 96.8331 128.04C95.7931 127.133 94.9665 125.987 94.3531 124.6C93.7398 123.213 93.4331 121.547 93.4331 119.6V101.28H100.873V118.6C100.873 119.613 100.98 120.467 101.193 121.16C101.433 121.827 101.74 122.36 102.113 122.76C102.513 123.16 102.98 123.453 103.513 123.64C104.046 123.8 104.62 123.88 105.233 123.88C105.846 123.88 106.42 123.8 106.953 123.64C107.486 123.453 107.94 123.16 108.313 122.76C108.713 122.36 109.02 121.827 109.233 121.16C109.473 120.467 109.593 119.613 109.593 118.6V101.28H117.033V119.6C117.033 121.547 116.726 123.213 116.113 124.6C115.5 125.987 114.66 127.133 113.593 128.04C112.553 128.92 111.313 129.573 109.873 130C108.433 130.4 106.886 130.6 105.233 130.6ZM156.087 130H148.567L146.847 109.48L140.687 130H135.727L129.567 109.48L127.847 130H120.327L122.807 101.28H133.647L138.207 115.96L142.767 101.28H153.607L156.087 130ZM177.16 107.76H167.16V112.44H176.08V118.84H167.16V123.52H177.16V130H159.72V101.28H177.16V107.76ZM200.96 101.28H208.4V130H199.56L188.64 111.88V130H181.2V101.28H189.96L200.96 119.28V101.28ZM231.272 101.28V107.76H224.832V130H217.392V107.76H210.912V101.28H231.272ZM243.648 130.6C242.074 130.6 240.581 130.4 239.168 130C237.781 129.6 236.541 129.027 235.448 128.28C234.381 127.507 233.488 126.56 232.768 125.44C232.074 124.32 231.621 123.04 231.408 121.6L238.768 120.04C239.168 121.667 239.794 122.827 240.648 123.52C241.501 124.213 242.541 124.56 243.768 124.56C244.808 124.56 245.608 124.347 246.168 123.92C246.728 123.493 247.008 122.893 247.008 122.12C247.008 121.64 246.861 121.227 246.568 120.88C246.301 120.533 245.928 120.227 245.448 119.96C244.968 119.667 244.408 119.413 243.768 119.2C243.154 118.96 242.488 118.72 241.768 118.48C240.728 118.133 239.661 117.747 238.568 117.32C237.474 116.893 236.474 116.347 235.568 115.68C234.661 115.013 233.914 114.187 233.328 113.2C232.768 112.187 232.488 110.933 232.488 109.44C232.488 108.107 232.741 106.907 233.248 105.84C233.781 104.773 234.501 103.853 235.408 103.08C236.341 102.307 237.448 101.72 238.728 101.32C240.034 100.893 241.461 100.68 243.008 100.68C244.261 100.68 245.514 100.827 246.768 101.12C248.048 101.413 249.221 101.88 250.288 102.52C251.381 103.16 252.314 104 253.088 105.04C253.888 106.053 254.434 107.307 254.728 108.8L248.048 110.32C247.594 109.067 247.008 108.16 246.288 107.6C245.594 107.013 244.661 106.72 243.488 106.72C242.474 106.72 241.634 106.92 240.968 107.32C240.328 107.72 240.008 108.28 240.008 109C240.008 109.4 240.128 109.747 240.368 110.04C240.634 110.307 240.981 110.56 241.408 110.8C241.861 111.013 242.368 111.213 242.928 111.4C243.514 111.587 244.141 111.787 244.808 112C245.901 112.32 247.021 112.693 248.168 113.12C249.341 113.547 250.408 114.107 251.368 114.8C252.354 115.493 253.154 116.387 253.768 117.48C254.408 118.547 254.728 119.907 254.728 121.56C254.728 122.92 254.461 124.16 253.928 125.28C253.394 126.373 252.648 127.32 251.688 128.12C250.728 128.92 249.568 129.533 248.208 129.96C246.848 130.387 245.328 130.6 243.648 130.6ZM286.326 107.76H275.926V112.44H284.846V118.84H275.926V130H268.486V101.28H286.326V107.76ZM303.216 130.6C301.056 130.6 299.056 130.24 297.216 129.52C295.403 128.8 293.829 127.787 292.496 126.48C291.189 125.147 290.163 123.56 289.416 121.72C288.669 119.88 288.296 117.853 288.296 115.64C288.296 113.427 288.669 111.4 289.416 109.56C290.163 107.72 291.189 106.147 292.496 104.84C293.829 103.507 295.403 102.48 297.216 101.76C299.056 101.04 301.056 100.68 303.216 100.68C305.376 100.68 307.363 101.04 309.176 101.76C311.016 102.48 312.589 103.507 313.896 104.84C315.229 106.147 316.269 107.72 317.016 109.56C317.763 111.4 318.136 113.427 318.136 115.64C318.136 117.853 317.763 119.88 317.016 121.72C316.269 123.56 315.229 125.147 313.896 126.48C312.589 127.787 311.016 128.8 309.176 129.52C307.363 130.24 305.376 130.6 303.216 130.6ZM303.216 123.8C304.309 123.8 305.309 123.613 306.216 123.24C307.123 122.84 307.909 122.28 308.576 121.56C309.243 120.84 309.763 119.987 310.136 119C310.509 117.987 310.696 116.867 310.696 115.64C310.696 114.413 310.509 113.307 310.136 112.32C309.763 111.307 309.243 110.44 308.576 109.72C307.909 109 307.123 108.453 306.216 108.08C305.309 107.68 304.309 107.48 303.216 107.48C302.149 107.48 301.149 107.68 300.216 108.08C299.309 108.453 298.523 109 297.856 109.72C297.189 110.44 296.669 111.307 296.296 112.32C295.923 113.307 295.736 114.413 295.736 115.64C295.736 116.867 295.923 117.987 296.296 119C296.669 119.987 297.189 120.84 297.856 121.56C298.523 122.28 299.309 122.84 300.216 123.24C301.149 123.613 302.149 123.8 303.216 123.8ZM345.244 130H336.164L328.924 118.88V130H321.484V101.28H331.324C333.484 101.28 335.258 101.48 336.644 101.88C338.058 102.28 339.231 102.88 340.164 103.68C340.964 104.373 341.591 105.267 342.044 106.36C342.524 107.453 342.764 108.787 342.764 110.36C342.764 111.96 342.418 113.48 341.724 114.92C341.031 116.36 339.924 117.453 338.404 118.2C338.218 118.28 338.031 118.36 337.844 118.44C337.684 118.52 337.511 118.587 337.324 118.64L345.244 130ZM334.244 108.2C333.711 107.827 333.058 107.613 332.284 107.56C331.511 107.48 330.831 107.44 330.244 107.44H328.924V114.12H330.244C330.511 114.12 330.831 114.12 331.204 114.12C331.578 114.093 331.951 114.053 332.324 114C332.724 113.947 333.098 113.867 333.444 113.76C333.818 113.653 334.138 113.493 334.404 113.28C335.018 112.8 335.324 111.973 335.324 110.8C335.324 110.133 335.231 109.6 335.044 109.2C334.858 108.773 334.591 108.44 334.244 108.2ZM381.68 101.28L372.24 116.28V130H364.8V116.4L355.28 101.28H363.44L368.48 109.76L373.56 101.28H381.68ZM395.072 130.6C392.912 130.6 390.912 130.24 389.072 129.52C387.259 128.8 385.686 127.787 384.352 126.48C383.046 125.147 382.019 123.56 381.272 121.72C380.526 119.88 380.152 117.853 380.152 115.64C380.152 113.427 380.526 111.4 381.272 109.56C382.019 107.72 383.046 106.147 384.352 104.84C385.686 103.507 387.259 102.48 389.072 101.76C390.912 101.04 392.912 100.68 395.072 100.68C397.232 100.68 399.219 101.04 401.032 101.76C402.872 102.48 404.446 103.507 405.752 104.84C407.086 106.147 408.126 107.72 408.872 109.56C409.619 111.4 409.992 113.427 409.992 115.64C409.992 117.853 409.619 119.88 408.872 121.72C408.126 123.56 407.086 125.147 405.752 126.48C404.446 127.787 402.872 128.8 401.032 129.52C399.219 130.24 397.232 130.6 395.072 130.6ZM395.072 123.8C396.166 123.8 397.166 123.613 398.072 123.24C398.979 122.84 399.766 122.28 400.432 121.56C401.099 120.84 401.619 119.987 401.992 119C402.366 117.987 402.552 116.867 402.552 115.64C402.552 114.413 402.366 113.307 401.992 112.32C401.619 111.307 401.099 110.44 400.432 109.72C399.766 109 398.979 108.453 398.072 108.08C397.166 107.68 396.166 107.48 395.072 107.48C394.006 107.48 393.006 107.68 392.072 108.08C391.166 108.453 390.379 109 389.712 109.72C389.046 110.44 388.526 111.307 388.152 112.32C387.779 113.307 387.592 114.413 387.592 115.64C387.592 116.867 387.779 117.987 388.152 119C388.526 119.987 389.046 120.84 389.712 121.56C390.379 122.28 391.166 122.84 392.072 123.24C393.006 123.613 394.006 123.8 395.072 123.8ZM424.821 130.6C423.167 130.6 421.621 130.4 420.181 130C418.741 129.573 417.487 128.92 416.421 128.04C415.381 127.133 414.554 125.987 413.941 124.6C413.327 123.213 413.021 121.547 413.021 119.6V101.28H420.461V118.6C420.461 119.613 420.567 120.467 420.781 121.16C421.021 121.827 421.327 122.36 421.701 122.76C422.101 123.16 422.567 123.453 423.101 123.64C423.634 123.8 424.207 123.88 424.821 123.88C425.434 123.88 426.007 123.8 426.541 123.64C427.074 123.453 427.527 123.16 427.901 122.76C428.301 122.36 428.607 121.827 428.821 121.16C429.061 120.467 429.181 119.613 429.181 118.6V101.28H436.621V119.6C436.621 121.547 436.314 123.213 435.701 124.6C435.087 125.987 434.247 127.133 433.181 128.04C432.141 128.92 430.901 129.573 429.461 130C428.021 130.4 426.474 130.6 424.821 130.6ZM464.674 130H455.594L448.354 118.88V130H440.914V101.28H450.754C452.914 101.28 454.687 101.48 456.074 101.88C457.487 102.28 458.661 102.88 459.594 103.68C460.394 104.373 461.021 105.267 461.474 106.36C461.954 107.453 462.194 108.787 462.194 110.36C462.194 111.96 461.847 113.48 461.154 114.92C460.461 116.36 459.354 117.453 457.834 118.2C457.647 118.28 457.461 118.36 457.274 118.44C457.114 118.52 456.941 118.587 456.754 118.64L464.674 130ZM453.674 108.2C453.141 107.827 452.487 107.613 451.714 107.56C450.941 107.48 450.261 107.44 449.674 107.44H448.354V114.12H449.674C449.941 114.12 450.261 114.12 450.634 114.12C451.007 114.093 451.381 114.053 451.754 114C452.154 113.947 452.527 113.867 452.874 113.76C453.247 113.653 453.567 113.493 453.834 113.28C454.447 112.8 454.754 111.973 454.754 110.8C454.754 110.133 454.661 109.6 454.474 109.2C454.287 108.773 454.021 108.44 453.674 108.2ZM19 170.56C20.6267 171.12 21.8933 171.96 22.8 173.08C23.7333 174.2 24.2 175.76 24.2 177.76C24.2 179.12 23.9867 180.28 23.56 181.24C23.1333 182.173 22.5867 182.947 21.92 183.56C21.2533 184.173 20.4933 184.653 19.64 185C18.8133 185.32 17.9867 185.56 17.16 185.72C16.3333 185.853 15.5467 185.933 14.8 185.96C14.08 185.987 13.4933 186 13.04 186H2.4V157.28H12.08C15.4933 157.28 18.0667 157.907 19.8 159.16C21.5333 160.387 22.4 162.213 22.4 164.64C22.4 167.467 21.2667 169.44 19 170.56ZM14.96 165.92C14.96 164.213 13.9467 163.36 11.92 163.36H9.84V168.44H11.92C13.9467 168.44 14.96 167.6 14.96 165.92ZM13.16 179.72C14.44 179.72 15.36 179.507 15.92 179.08C16.48 178.627 16.76 177.893 16.76 176.88C16.76 175.867 16.48 175.147 15.92 174.72C15.36 174.267 14.44 174.04 13.16 174.04H9.84V179.72H13.16ZM39.1097 186.6C37.4564 186.6 35.9097 186.4 34.4697 186C33.0297 185.573 31.7764 184.92 30.7097 184.04C29.6697 183.133 28.843 181.987 28.2297 180.6C27.6164 179.213 27.3097 177.547 27.3097 175.6V157.28H34.7497V174.6C34.7497 175.613 34.8564 176.467 35.0697 177.16C35.3097 177.827 35.6164 178.36 35.9897 178.76C36.3897 179.16 36.8564 179.453 37.3897 179.64C37.923 179.8 38.4964 179.88 39.1097 179.88C39.723 179.88 40.2964 179.8 40.8297 179.64C41.363 179.453 41.8164 179.16 42.1897 178.76C42.5897 178.36 42.8964 177.827 43.1097 177.16C43.3497 176.467 43.4697 175.613 43.4697 174.6V157.28H50.9097V175.6C50.9097 177.547 50.603 179.213 49.9897 180.6C49.3764 181.987 48.5364 183.133 47.4697 184.04C46.4297 184.92 45.1897 185.573 43.7497 186C42.3097 186.4 40.763 186.6 39.1097 186.6ZM65.0431 186.6C63.4698 186.6 61.9765 186.4 60.5631 186C59.1765 185.6 57.9365 185.027 56.8431 184.28C55.7765 183.507 54.8831 182.56 54.1631 181.44C53.4698 180.32 53.0165 179.04 52.8031 177.6L60.1631 176.04C60.5631 177.667 61.1898 178.827 62.0431 179.52C62.8965 180.213 63.9365 180.56 65.1631 180.56C66.2031 180.56 67.0031 180.347 67.5631 179.92C68.1231 179.493 68.4031 178.893 68.4031 178.12C68.4031 177.64 68.2565 177.227 67.9631 176.88C67.6965 176.533 67.3231 176.227 66.8431 175.96C66.3631 175.667 65.8031 175.413 65.1631 175.2C64.5498 174.96 63.8831 174.72 63.1631 174.48C62.1231 174.133 61.0565 173.747 59.9631 173.32C58.8698 172.893 57.8698 172.347 56.9631 171.68C56.0565 171.013 55.3098 170.187 54.7231 169.2C54.1631 168.187 53.8831 166.933 53.8831 165.44C53.8831 164.107 54.1365 162.907 54.6431 161.84C55.1765 160.773 55.8965 159.853 56.8031 159.08C57.7365 158.307 58.8431 157.72 60.1231 157.32C61.4298 156.893 62.8565 156.68 64.4031 156.68C65.6565 156.68 66.9098 156.827 68.1631 157.12C69.4431 157.413 70.6165 157.88 71.6831 158.52C72.7765 159.16 73.7098 160 74.4831 161.04C75.2831 162.053 75.8298 163.307 76.1231 164.8L69.4431 166.32C68.9898 165.067 68.4031 164.16 67.6831 163.6C66.9898 163.013 66.0565 162.72 64.8831 162.72C63.8698 162.72 63.0298 162.92 62.3631 163.32C61.7231 163.72 61.4031 164.28 61.4031 165C61.4031 165.4 61.5231 165.747 61.7631 166.04C62.0298 166.307 62.3765 166.56 62.8031 166.8C63.2565 167.013 63.7631 167.213 64.3231 167.4C64.9098 167.587 65.5365 167.787 66.2031 168C67.2965 168.32 68.4165 168.693 69.5631 169.12C70.7365 169.547 71.8031 170.107 72.7631 170.8C73.7498 171.493 74.5498 172.387 75.1631 173.48C75.8031 174.547 76.1231 175.907 76.1231 177.56C76.1231 178.92 75.8565 180.16 75.3231 181.28C74.7898 182.373 74.0431 183.32 73.0831 184.12C72.1231 184.92 70.9631 185.533 69.6031 185.96C68.2431 186.387 66.7231 186.6 65.0431 186.6ZM79.6906 186V157.28H87.1306V186H79.6906ZM111.477 157.28H118.917V186H110.077L99.1572 167.88V186H91.7172V157.28H100.477L111.477 175.28V157.28ZM140.949 163.76H130.949V168.44H139.869V174.84H130.949V179.52H140.949V186H123.509V157.28H140.949V163.76ZM154.829 186.6C153.256 186.6 151.762 186.4 150.349 186C148.962 185.6 147.722 185.027 146.629 184.28C145.562 183.507 144.669 182.56 143.949 181.44C143.256 180.32 142.802 179.04 142.589 177.6L149.949 176.04C150.349 177.667 150.976 178.827 151.829 179.52C152.682 180.213 153.722 180.56 154.949 180.56C155.989 180.56 156.789 180.347 157.349 179.92C157.909 179.493 158.189 178.893 158.189 178.12C158.189 177.64 158.042 177.227 157.749 176.88C157.482 176.533 157.109 176.227 156.629 175.96C156.149 175.667 155.589 175.413 154.949 175.2C154.336 174.96 153.669 174.72 152.949 174.48C151.909 174.133 150.842 173.747 149.749 173.32C148.656 172.893 147.656 172.347 146.749 171.68C145.842 171.013 145.096 170.187 144.509 169.2C143.949 168.187 143.669 166.933 143.669 165.44C143.669 164.107 143.922 162.907 144.429 161.84C144.962 160.773 145.682 159.853 146.589 159.08C147.522 158.307 148.629 157.72 149.909 157.32C151.216 156.893 152.642 156.68 154.189 156.68C155.442 156.68 156.696 156.827 157.949 157.12C159.229 157.413 160.402 157.88 161.469 158.52C162.562 159.16 163.496 160 164.269 161.04C165.069 162.053 165.616 163.307 165.909 164.8L159.229 166.32C158.776 165.067 158.189 164.16 157.469 163.6C156.776 163.013 155.842 162.72 154.669 162.72C153.656 162.72 152.816 162.92 152.149 163.32C151.509 163.72 151.189 164.28 151.189 165C151.189 165.4 151.309 165.747 151.549 166.04C151.816 166.307 152.162 166.56 152.589 166.8C153.042 167.013 153.549 167.213 154.109 167.4C154.696 167.587 155.322 167.787 155.989 168C157.082 168.32 158.202 168.693 159.349 169.12C160.522 169.547 161.589 170.107 162.549 170.8C163.536 171.493 164.336 172.387 164.949 173.48C165.589 174.547 165.909 175.907 165.909 177.56C165.909 178.92 165.642 180.16 165.109 181.28C164.576 182.373 163.829 183.32 162.869 184.12C161.909 184.92 160.749 185.533 159.389 185.96C158.029 186.387 156.509 186.6 154.829 186.6ZM179.317 186.6C177.743 186.6 176.25 186.4 174.837 186C173.45 185.6 172.21 185.027 171.117 184.28C170.05 183.507 169.157 182.56 168.437 181.44C167.743 180.32 167.29 179.04 167.077 177.6L174.437 176.04C174.837 177.667 175.463 178.827 176.317 179.52C177.17 180.213 178.21 180.56 179.437 180.56C180.477 180.56 181.277 180.347 181.837 179.92C182.397 179.493 182.677 178.893 182.677 178.12C182.677 177.64 182.53 177.227 182.237 176.88C181.97 176.533 181.597 176.227 181.117 175.96C180.637 175.667 180.077 175.413 179.437 175.2C178.823 174.96 178.157 174.72 177.437 174.48C176.397 174.133 175.33 173.747 174.237 173.32C173.143 172.893 172.143 172.347 171.237 171.68C170.33 171.013 169.583 170.187 168.997 169.2C168.437 168.187 168.157 166.933 168.157 165.44C168.157 164.107 168.41 162.907 168.917 161.84C169.45 160.773 170.17 159.853 171.077 159.08C172.01 158.307 173.117 157.72 174.397 157.32C175.703 156.893 177.13 156.68 178.677 156.68C179.93 156.68 181.183 156.827 182.437 157.12C183.717 157.413 184.89 157.88 185.957 158.52C187.05 159.16 187.983 160 188.757 161.04C189.557 162.053 190.103 163.307 190.397 164.8L183.717 166.32C183.263 165.067 182.677 164.16 181.957 163.6C181.263 163.013 180.33 162.72 179.157 162.72C178.143 162.72 177.303 162.92 176.637 163.32C175.997 163.72 175.677 164.28 175.677 165C175.677 165.4 175.797 165.747 176.037 166.04C176.303 166.307 176.65 166.56 177.077 166.8C177.53 167.013 178.037 167.213 178.597 167.4C179.183 167.587 179.81 167.787 180.477 168C181.57 168.32 182.69 168.693 183.837 169.12C185.01 169.547 186.077 170.107 187.037 170.8C188.023 171.493 188.823 172.387 189.437 173.48C190.077 174.547 190.397 175.907 190.397 177.56C190.397 178.92 190.13 180.16 189.597 181.28C189.063 182.373 188.317 183.32 187.357 184.12C186.397 184.92 185.237 185.533 183.877 185.96C182.517 186.387 180.997 186.6 179.317 186.6ZM193.804 193.28L196.284 180.08H203.564L198.844 193.28H193.804ZM251.028 157.28H258.708L251.668 186H241.828L237.108 171.04L232.428 186H222.588L215.548 157.28H223.228L228.108 177.84L234.028 157.28H240.228L246.108 177.84L251.028 157.28ZM274.427 186.6C272.267 186.6 270.267 186.24 268.427 185.52C266.614 184.8 265.04 183.787 263.707 182.48C262.4 181.147 261.374 179.56 260.627 177.72C259.88 175.88 259.507 173.853 259.507 171.64C259.507 169.427 259.88 167.4 260.627 165.56C261.374 163.72 262.4 162.147 263.707 160.84C265.04 159.507 266.614 158.48 268.427 157.76C270.267 157.04 272.267 156.68 274.427 156.68C276.587 156.68 278.574 157.04 280.387 157.76C282.227 158.48 283.8 159.507 285.107 160.84C286.44 162.147 287.48 163.72 288.227 165.56C288.974 167.4 289.347 169.427 289.347 171.64C289.347 173.853 288.974 175.88 288.227 177.72C287.48 179.56 286.44 181.147 285.107 182.48C283.8 183.787 282.227 184.8 280.387 185.52C278.574 186.24 276.587 186.6 274.427 186.6ZM274.427 179.8C275.52 179.8 276.52 179.613 277.427 179.24C278.334 178.84 279.12 178.28 279.787 177.56C280.454 176.84 280.974 175.987 281.347 175C281.72 173.987 281.907 172.867 281.907 171.64C281.907 170.413 281.72 169.307 281.347 168.32C280.974 167.307 280.454 166.44 279.787 165.72C279.12 165 278.334 164.453 277.427 164.08C276.52 163.68 275.52 163.48 274.427 163.48C273.36 163.48 272.36 163.68 271.427 164.08C270.52 164.453 269.734 165 269.067 165.72C268.4 166.44 267.88 167.307 267.507 168.32C267.134 169.307 266.947 170.413 266.947 171.64C266.947 172.867 267.134 173.987 267.507 175C267.88 175.987 268.4 176.84 269.067 177.56C269.734 178.28 270.52 178.84 271.427 179.24C272.36 179.613 273.36 179.8 274.427 179.8ZM316.455 186H307.375L300.135 174.88V186H292.695V157.28H302.535C304.695 157.28 306.469 157.48 307.855 157.88C309.269 158.28 310.442 158.88 311.375 159.68C312.175 160.373 312.802 161.267 313.255 162.36C313.735 163.453 313.975 164.787 313.975 166.36C313.975 167.96 313.629 169.48 312.935 170.92C312.242 172.36 311.135 173.453 309.615 174.2C309.429 174.28 309.242 174.36 309.055 174.44C308.895 174.52 308.722 174.587 308.535 174.64L316.455 186ZM305.455 164.2C304.922 163.827 304.269 163.613 303.495 163.56C302.722 163.48 302.042 163.44 301.455 163.44H300.135V170.12H301.455C301.722 170.12 302.042 170.12 302.415 170.12C302.789 170.093 303.162 170.053 303.535 170C303.935 169.947 304.309 169.867 304.655 169.76C305.029 169.653 305.349 169.493 305.615 169.28C306.229 168.8 306.535 167.973 306.535 166.8C306.535 166.133 306.442 165.6 306.255 165.2C306.069 164.773 305.802 164.44 305.455 164.2ZM336.421 186L328.181 174.44H326.381V186H318.941V157.28H326.381V168.04H328.101L336.501 157.28H345.541L334.541 171.04L345.741 186H336.421ZM381.988 186H372.908L365.668 174.88V186H358.228V157.28H368.068C370.228 157.28 372.001 157.48 373.388 157.88C374.801 158.28 375.975 158.88 376.908 159.68C377.708 160.373 378.335 161.267 378.788 162.36C379.268 163.453 379.508 164.787 379.508 166.36C379.508 167.96 379.161 169.48 378.468 170.92C377.775 172.36 376.668 173.453 375.148 174.2C374.961 174.28 374.775 174.36 374.588 174.44C374.428 174.52 374.255 174.587 374.068 174.64L381.988 186ZM370.988 164.2C370.455 163.827 369.801 163.613 369.028 163.56C368.255 163.48 367.575 163.44 366.988 163.44H365.668V170.12H366.988C367.255 170.12 367.575 170.12 367.948 170.12C368.321 170.093 368.695 170.053 369.068 170C369.468 169.947 369.841 169.867 370.188 169.76C370.561 169.653 370.881 169.493 371.148 169.28C371.761 168.8 372.068 167.973 372.068 166.8C372.068 166.133 371.975 165.6 371.788 165.2C371.601 164.773 371.335 164.44 370.988 164.2ZM401.913 163.76H391.913V168.44H400.833V174.84H391.913V179.52H401.913V186H384.473V157.28H401.913V163.76ZM424.633 159.68C425.433 160.373 426.06 161.267 426.513 162.36C426.993 163.453 427.233 164.787 427.233 166.36C427.233 168.2 426.886 169.893 426.193 171.44C425.5 172.96 424.393 174.133 422.873 174.96C422.286 175.28 421.66 175.533 420.993 175.72C420.326 175.907 419.673 176.04 419.033 176.12C418.393 176.2 417.793 176.253 417.233 176.28C416.673 176.28 416.193 176.28 415.793 176.28H413.393V186H405.953V157.28H415.793C417.953 157.28 419.726 157.48 421.113 157.88C422.526 158.28 423.7 158.88 424.633 159.68ZM418.873 169.28C419.486 168.8 419.793 167.973 419.793 166.8C419.793 166.133 419.7 165.6 419.513 165.2C419.326 164.773 419.06 164.44 418.713 164.2C418.18 163.827 417.526 163.613 416.753 163.56C415.98 163.48 415.3 163.44 414.713 163.44H413.393V170.12H414.713C414.98 170.12 415.3 170.12 415.673 170.12C416.046 170.093 416.42 170.053 416.793 170C417.193 169.947 417.566 169.867 417.913 169.76C418.286 169.653 418.606 169.493 418.873 169.28ZM443.964 186.6C441.804 186.6 439.804 186.24 437.964 185.52C436.151 184.8 434.578 183.787 433.244 182.48C431.938 181.147 430.911 179.56 430.164 177.72C429.418 175.88 429.044 173.853 429.044 171.64C429.044 169.427 429.418 167.4 430.164 165.56C430.911 163.72 431.938 162.147 433.244 160.84C434.578 159.507 436.151 158.48 437.964 157.76C439.804 157.04 441.804 156.68 443.964 156.68C446.124 156.68 448.111 157.04 449.924 157.76C451.764 158.48 453.338 159.507 454.644 160.84C455.978 162.147 457.018 163.72 457.764 165.56C458.511 167.4 458.884 169.427 458.884 171.64C458.884 173.853 458.511 175.88 457.764 177.72C457.018 179.56 455.978 181.147 454.644 182.48C453.338 183.787 451.764 184.8 449.924 185.52C448.111 186.24 446.124 186.6 443.964 186.6ZM443.964 179.8C445.058 179.8 446.058 179.613 446.964 179.24C447.871 178.84 448.658 178.28 449.324 177.56C449.991 176.84 450.511 175.987 450.884 175C451.258 173.987 451.444 172.867 451.444 171.64C451.444 170.413 451.258 169.307 450.884 168.32C450.511 167.307 449.991 166.44 449.324 165.72C448.658 165 447.871 164.453 446.964 164.08C446.058 163.68 445.058 163.48 443.964 163.48C442.898 163.48 441.898 163.68 440.964 164.08C440.058 164.453 439.271 165 438.604 165.72C437.938 166.44 437.418 167.307 437.044 168.32C436.671 169.307 436.484 170.413 436.484 171.64C436.484 172.867 436.671 173.987 437.044 175C437.418 175.987 437.938 176.84 438.604 177.56C439.271 178.28 440.058 178.84 440.964 179.24C441.898 179.613 442.898 179.8 443.964 179.8ZM485.993 186H476.913L469.673 174.88V186H462.233V157.28H472.073C474.233 157.28 476.006 157.48 477.393 157.88C478.806 158.28 479.979 158.88 480.913 159.68C481.713 160.373 482.339 161.267 482.793 162.36C483.273 163.453 483.513 164.787 483.513 166.36C483.513 167.96 483.166 169.48 482.473 170.92C481.779 172.36 480.673 173.453 479.153 174.2C478.966 174.28 478.779 174.36 478.593 174.44C478.433 174.52 478.259 174.587 478.073 174.64L485.993 186ZM474.993 164.2C474.459 163.827 473.806 163.613 473.033 163.56C472.259 163.48 471.579 163.44 470.993 163.44H469.673V170.12H470.993C471.259 170.12 471.579 170.12 471.953 170.12C472.326 170.093 472.699 170.053 473.073 170C473.473 169.947 473.846 169.867 474.193 169.76C474.566 169.653 474.886 169.493 475.153 169.28C475.766 168.8 476.073 167.973 476.073 166.8C476.073 166.133 475.979 165.6 475.793 165.2C475.606 164.773 475.339 164.44 474.993 164.2ZM506.485 157.28V163.76H500.045V186H492.605V163.76H486.125V157.28H506.485ZM507.142 193.28L509.622 180.08H516.902L512.182 193.28H507.142ZM22.4 242L20.56 236.68H9.8L7.96 242H0.04L10.6 213.28H19.76L30.32 242H22.4ZM11.88 230.56H18.48L15.2 221.04L11.88 230.56ZM52.3116 213.28H59.7516V242H50.9116L39.9916 223.88V242H32.5516V213.28H41.3116L52.3116 231.28V213.28ZM64.3437 242V213.28H73.9037C76.3037 213.28 78.3171 213.507 79.9437 213.96C81.5704 214.387 82.9838 215.013 84.1838 215.84C85.9438 217.093 87.2504 218.72 88.1038 220.72C88.9838 222.72 89.4237 225.027 89.4237 227.64C89.4237 230.253 88.9838 232.56 88.1038 234.56C87.2504 236.56 85.9438 238.187 84.1838 239.44C82.9838 240.267 81.5704 240.907 79.9437 241.36C78.3171 241.787 76.3037 242 73.9037 242H64.3437ZM71.7837 235.52H73.8637C75.9171 235.52 77.6104 235.08 78.9437 234.2C79.9571 233.533 80.7171 232.64 81.2237 231.52C81.7304 230.4 81.9838 229.107 81.9838 227.64C81.9838 226.173 81.7304 224.88 81.2237 223.76C80.7171 222.64 79.9571 221.747 78.9437 221.08C77.6104 220.2 75.9171 219.76 73.8637 219.76H71.7837V235.52ZM121.764 215.68C122.564 216.373 123.191 217.267 123.644 218.36C124.124 219.453 124.364 220.787 124.364 222.36C124.364 224.2 124.018 225.893 123.324 227.44C122.631 228.96 121.524 230.133 120.004 230.96C119.418 231.28 118.791 231.533 118.124 231.72C117.458 231.907 116.804 232.04 116.164 232.12C115.524 232.2 114.924 232.253 114.364 232.28C113.804 232.28 113.324 232.28 112.924 232.28H110.524V242H103.084V213.28H112.924C115.084 213.28 116.858 213.48 118.244 213.88C119.658 214.28 120.831 214.88 121.764 215.68ZM116.004 225.28C116.618 224.8 116.924 223.973 116.924 222.8C116.924 222.133 116.831 221.6 116.644 221.2C116.458 220.773 116.191 220.44 115.844 220.2C115.311 219.827 114.658 219.613 113.884 219.56C113.111 219.48 112.431 219.44 111.844 219.44H110.524V226.12H111.844C112.111 226.12 112.431 226.12 112.804 226.12C113.178 226.093 113.551 226.053 113.924 226C114.324 225.947 114.698 225.867 115.044 225.76C115.418 225.653 115.738 225.493 116.004 225.28ZM151.176 242H142.096L134.856 230.88V242H127.416V213.28H137.256C139.416 213.28 141.189 213.48 142.576 213.88C143.989 214.28 145.162 214.88 146.096 215.68C146.896 216.373 147.522 217.267 147.976 218.36C148.456 219.453 148.696 220.787 148.696 222.36C148.696 223.96 148.349 225.48 147.656 226.92C146.962 228.36 145.856 229.453 144.336 230.2C144.149 230.28 143.962 230.36 143.776 230.44C143.616 230.52 143.442 230.587 143.256 230.64L151.176 242ZM140.176 220.2C139.642 219.827 138.989 219.613 138.216 219.56C137.442 219.48 136.762 219.44 136.176 219.44H134.856V226.12H136.176C136.442 226.12 136.762 226.12 137.136 226.12C137.509 226.093 137.882 226.053 138.256 226C138.656 225.947 139.029 225.867 139.376 225.76C139.749 225.653 140.069 225.493 140.336 225.28C140.949 224.8 141.256 223.973 141.256 222.8C141.256 222.133 141.162 221.6 140.976 221.2C140.789 220.773 140.522 220.44 140.176 220.2ZM166.716 242.6C164.556 242.6 162.556 242.24 160.716 241.52C158.903 240.8 157.329 239.787 155.996 238.48C154.689 237.147 153.663 235.56 152.916 233.72C152.169 231.88 151.796 229.853 151.796 227.64C151.796 225.427 152.169 223.4 152.916 221.56C153.663 219.72 154.689 218.147 155.996 216.84C157.329 215.507 158.903 214.48 160.716 213.76C162.556 213.04 164.556 212.68 166.716 212.68C168.876 212.68 170.863 213.04 172.676 213.76C174.516 214.48 176.089 215.507 177.396 216.84C178.729 218.147 179.769 219.72 180.516 221.56C181.263 223.4 181.636 225.427 181.636 227.64C181.636 229.853 181.263 231.88 180.516 233.72C179.769 235.56 178.729 237.147 177.396 238.48C176.089 239.787 174.516 240.8 172.676 241.52C170.863 242.24 168.876 242.6 166.716 242.6ZM166.716 235.8C167.809 235.8 168.809 235.613 169.716 235.24C170.623 234.84 171.409 234.28 172.076 233.56C172.743 232.84 173.263 231.987 173.636 231C174.009 229.987 174.196 228.867 174.196 227.64C174.196 226.413 174.009 225.307 173.636 224.32C173.263 223.307 172.743 222.44 172.076 221.72C171.409 221 170.623 220.453 169.716 220.08C168.809 219.68 167.809 219.48 166.716 219.48C165.649 219.48 164.649 219.68 163.716 220.08C162.809 220.453 162.023 221 161.356 221.72C160.689 222.44 160.169 223.307 159.796 224.32C159.423 225.307 159.236 226.413 159.236 227.64C159.236 228.867 159.423 229.987 159.796 231C160.169 231.987 160.689 232.84 161.356 233.56C162.023 234.28 162.809 234.84 163.716 235.24C164.649 235.613 165.649 235.8 166.716 235.8ZM203.664 215.68C204.464 216.373 205.091 217.267 205.544 218.36C206.024 219.453 206.264 220.787 206.264 222.36C206.264 224.2 205.918 225.893 205.224 227.44C204.531 228.96 203.424 230.133 201.904 230.96C201.318 231.28 200.691 231.533 200.024 231.72C199.358 231.907 198.704 232.04 198.064 232.12C197.424 232.2 196.824 232.253 196.264 232.28C195.704 232.28 195.224 232.28 194.824 232.28H192.424V242H184.984V213.28H194.824C196.984 213.28 198.758 213.48 200.144 213.88C201.558 214.28 202.731 214.88 203.664 215.68ZM197.904 225.28C198.518 224.8 198.824 223.973 198.824 222.8C198.824 222.133 198.731 221.6 198.544 221.2C198.358 220.773 198.091 220.44 197.744 220.2C197.211 219.827 196.558 219.613 195.784 219.56C195.011 219.48 194.331 219.44 193.744 219.44H192.424V226.12H193.744C194.011 226.12 194.331 226.12 194.704 226.12C195.078 226.093 195.451 226.053 195.824 226C196.224 225.947 196.598 225.867 196.944 225.76C197.318 225.653 197.638 225.493 197.904 225.28ZM222.996 242.6C220.836 242.6 218.836 242.24 216.996 241.52C215.182 240.8 213.609 239.787 212.276 238.48C210.969 237.147 209.942 235.56 209.196 233.72C208.449 231.88 208.076 229.853 208.076 227.64C208.076 225.427 208.449 223.4 209.196 221.56C209.942 219.72 210.969 218.147 212.276 216.84C213.609 215.507 215.182 214.48 216.996 213.76C218.836 213.04 220.836 212.68 222.996 212.68C225.156 212.68 227.142 213.04 228.956 213.76C230.796 214.48 232.369 215.507 233.676 216.84C235.009 218.147 236.049 219.72 236.796 221.56C237.542 223.4 237.916 225.427 237.916 227.64C237.916 229.853 237.542 231.88 236.796 233.72C236.049 235.56 235.009 237.147 233.676 238.48C232.369 239.787 230.796 240.8 228.956 241.52C227.142 242.24 225.156 242.6 222.996 242.6ZM222.996 235.8C224.089 235.8 225.089 235.613 225.996 235.24C226.902 234.84 227.689 234.28 228.356 233.56C229.022 232.84 229.542 231.987 229.916 231C230.289 229.987 230.476 228.867 230.476 227.64C230.476 226.413 230.289 225.307 229.916 224.32C229.542 223.307 229.022 222.44 228.356 221.72C227.689 221 226.902 220.453 225.996 220.08C225.089 219.68 224.089 219.48 222.996 219.48C221.929 219.48 220.929 219.68 219.996 220.08C219.089 220.453 218.302 221 217.636 221.72C216.969 222.44 216.449 223.307 216.076 224.32C215.702 225.307 215.516 226.413 215.516 227.64C215.516 228.867 215.702 229.987 216.076 231C216.449 231.987 216.969 232.84 217.636 233.56C218.302 234.28 219.089 234.84 219.996 235.24C220.929 235.613 221.929 235.8 222.996 235.8ZM251.104 242.6C249.531 242.6 248.037 242.4 246.624 242C245.237 241.6 243.997 241.027 242.904 240.28C241.837 239.507 240.944 238.56 240.224 237.44C239.531 236.32 239.077 235.04 238.864 233.6L246.224 232.04C246.624 233.667 247.251 234.827 248.104 235.52C248.957 236.213 249.997 236.56 251.224 236.56C252.264 236.56 253.064 236.347 253.624 235.92C254.184 235.493 254.464 234.893 254.464 234.12C254.464 233.64 254.317 233.227 254.024 232.88C253.757 232.533 253.384 232.227 252.904 231.96C252.424 231.667 251.864 231.413 251.224 231.2C250.611 230.96 249.944 230.72 249.224 230.48C248.184 230.133 247.117 229.747 246.024 229.32C244.931 228.893 243.931 228.347 243.024 227.68C242.117 227.013 241.371 226.187 240.784 225.2C240.224 224.187 239.944 222.933 239.944 221.44C239.944 220.107 240.197 218.907 240.704 217.84C241.237 216.773 241.957 215.853 242.864 215.08C243.797 214.307 244.904 213.72 246.184 213.32C247.491 212.893 248.917 212.68 250.464 212.68C251.717 212.68 252.971 212.827 254.224 213.12C255.504 213.413 256.677 213.88 257.744 214.52C258.837 215.16 259.771 216 260.544 217.04C261.344 218.053 261.891 219.307 262.184 220.8L255.504 222.32C255.051 221.067 254.464 220.16 253.744 219.6C253.051 219.013 252.117 218.72 250.944 218.72C249.931 218.72 249.091 218.92 248.424 219.32C247.784 219.72 247.464 220.28 247.464 221C247.464 221.4 247.584 221.747 247.824 222.04C248.091 222.307 248.437 222.56 248.864 222.8C249.317 223.013 249.824 223.213 250.384 223.4C250.971 223.587 251.597 223.787 252.264 224C253.357 224.32 254.477 224.693 255.624 225.12C256.797 225.547 257.864 226.107 258.824 226.8C259.811 227.493 260.611 228.387 261.224 229.48C261.864 230.547 262.184 231.907 262.184 233.56C262.184 234.92 261.917 236.16 261.384 237.28C260.851 238.373 260.104 239.32 259.144 240.12C258.184 240.92 257.024 241.533 255.664 241.96C254.304 242.387 252.784 242.6 251.104 242.6ZM285.556 242L283.716 236.68H272.956L271.116 242H263.196L273.756 213.28H282.916L293.476 242H285.556ZM275.036 230.56H281.636L278.356 221.04L275.036 230.56ZM295.708 242V213.28H303.148V235.52H311.548V242H295.708ZM323.903 242.6C322.329 242.6 320.836 242.4 319.423 242C318.036 241.6 316.796 241.027 315.703 240.28C314.636 239.507 313.743 238.56 313.023 237.44C312.329 236.32 311.876 235.04 311.663 233.6L319.023 232.04C319.423 233.667 320.049 234.827 320.903 235.52C321.756 236.213 322.796 236.56 324.023 236.56C325.063 236.56 325.863 236.347 326.423 235.92C326.983 235.493 327.263 234.893 327.263 234.12C327.263 233.64 327.116 233.227 326.823 232.88C326.556 232.533 326.183 232.227 325.703 231.96C325.223 231.667 324.663 231.413 324.023 231.2C323.409 230.96 322.743 230.72 322.023 230.48C320.983 230.133 319.916 229.747 318.823 229.32C317.729 228.893 316.729 228.347 315.823 227.68C314.916 227.013 314.169 226.187 313.583 225.2C313.023 224.187 312.743 222.933 312.743 221.44C312.743 220.107 312.996 218.907 313.503 217.84C314.036 216.773 314.756 215.853 315.663 215.08C316.596 214.307 317.703 213.72 318.983 213.32C320.289 212.893 321.716 212.68 323.263 212.68C324.516 212.68 325.769 212.827 327.023 213.12C328.303 213.413 329.476 213.88 330.543 214.52C331.636 215.16 332.569 216 333.343 217.04C334.143 218.053 334.689 219.307 334.983 220.8L328.303 222.32C327.849 221.067 327.263 220.16 326.543 219.6C325.849 219.013 324.916 218.72 323.743 218.72C322.729 218.72 321.889 218.92 321.223 219.32C320.583 219.72 320.263 220.28 320.263 221C320.263 221.4 320.383 221.747 320.623 222.04C320.889 222.307 321.236 222.56 321.663 222.8C322.116 223.013 322.623 223.213 323.183 223.4C323.769 223.587 324.396 223.787 325.063 224C326.156 224.32 327.276 224.693 328.423 225.12C329.596 225.547 330.663 226.107 331.623 226.8C332.609 227.493 333.409 228.387 334.023 229.48C334.663 230.547 334.983 231.907 334.983 233.56C334.983 234.92 334.716 236.16 334.183 237.28C333.649 238.373 332.903 239.32 331.943 240.12C330.983 240.92 329.823 241.533 328.463 241.96C327.103 242.387 325.583 242.6 323.903 242.6ZM366.581 219.76H356.181V224.44H365.101V230.84H356.181V242H348.741V213.28H366.581V219.76ZM383.471 242.6C381.311 242.6 379.311 242.24 377.471 241.52C375.657 240.8 374.084 239.787 372.751 238.48C371.444 237.147 370.417 235.56 369.671 233.72C368.924 231.88 368.551 229.853 368.551 227.64C368.551 225.427 368.924 223.4 369.671 221.56C370.417 219.72 371.444 218.147 372.751 216.84C374.084 215.507 375.657 214.48 377.471 213.76C379.311 213.04 381.311 212.68 383.471 212.68C385.631 212.68 387.617 213.04 389.431 213.76C391.271 214.48 392.844 215.507 394.151 216.84C395.484 218.147 396.524 219.72 397.271 221.56C398.017 223.4 398.391 225.427 398.391 227.64C398.391 229.853 398.017 231.88 397.271 233.72C396.524 235.56 395.484 237.147 394.151 238.48C392.844 239.787 391.271 240.8 389.431 241.52C387.617 242.24 385.631 242.6 383.471 242.6ZM383.471 235.8C384.564 235.8 385.564 235.613 386.471 235.24C387.377 234.84 388.164 234.28 388.831 233.56C389.497 232.84 390.017 231.987 390.391 231C390.764 229.987 390.951 228.867 390.951 227.64C390.951 226.413 390.764 225.307 390.391 224.32C390.017 223.307 389.497 222.44 388.831 221.72C388.164 221 387.377 220.453 386.471 220.08C385.564 219.68 384.564 219.48 383.471 219.48C382.404 219.48 381.404 219.68 380.471 220.08C379.564 220.453 378.777 221 378.111 221.72C377.444 222.44 376.924 223.307 376.551 224.32C376.177 225.307 375.991 226.413 375.991 227.64C375.991 228.867 376.177 229.987 376.551 231C376.924 231.987 377.444 232.84 378.111 233.56C378.777 234.28 379.564 234.84 380.471 235.24C381.404 235.613 382.404 235.8 383.471 235.8ZM425.499 242H416.419L409.179 230.88V242H401.739V213.28H411.579C413.739 213.28 415.512 213.48 416.899 213.88C418.312 214.28 419.486 214.88 420.419 215.68C421.219 216.373 421.846 217.267 422.299 218.36C422.779 219.453 423.019 220.787 423.019 222.36C423.019 223.96 422.672 225.48 421.979 226.92C421.286 228.36 420.179 229.453 418.659 230.2C418.472 230.28 418.286 230.36 418.099 230.44C417.939 230.52 417.766 230.587 417.579 230.64L425.499 242ZM414.499 220.2C413.966 219.827 413.312 219.613 412.539 219.56C411.766 219.48 411.086 219.44 410.499 219.44H409.179V226.12H410.499C410.766 226.12 411.086 226.12 411.459 226.12C411.832 226.093 412.206 226.053 412.579 226C412.979 225.947 413.352 225.867 413.699 225.76C414.072 225.653 414.392 225.493 414.659 225.28C415.272 224.8 415.579 223.973 415.579 222.8C415.579 222.133 415.486 221.6 415.299 221.2C415.112 220.773 414.846 220.44 414.499 220.2ZM461.935 213.28L452.495 228.28V242H445.055V228.4L435.535 213.28H443.695L448.735 221.76L453.815 213.28H461.935ZM475.327 242.6C473.167 242.6 471.167 242.24 469.327 241.52C467.514 240.8 465.94 239.787 464.607 238.48C463.3 237.147 462.274 235.56 461.527 233.72C460.78 231.88 460.407 229.853 460.407 227.64C460.407 225.427 460.78 223.4 461.527 221.56C462.274 219.72 463.3 218.147 464.607 216.84C465.94 215.507 467.514 214.48 469.327 213.76C471.167 213.04 473.167 212.68 475.327 212.68C477.487 212.68 479.474 213.04 481.287 213.76C483.127 214.48 484.7 215.507 486.007 216.84C487.34 218.147 488.38 219.72 489.127 221.56C489.874 223.4 490.247 225.427 490.247 227.64C490.247 229.853 489.874 231.88 489.127 233.72C488.38 235.56 487.34 237.147 486.007 238.48C484.7 239.787 483.127 240.8 481.287 241.52C479.474 242.24 477.487 242.6 475.327 242.6ZM475.327 235.8C476.42 235.8 477.42 235.613 478.327 235.24C479.234 234.84 480.02 234.28 480.687 233.56C481.354 232.84 481.874 231.987 482.247 231C482.62 229.987 482.807 228.867 482.807 227.64C482.807 226.413 482.62 225.307 482.247 224.32C481.874 223.307 481.354 222.44 480.687 221.72C480.02 221 479.234 220.453 478.327 220.08C477.42 219.68 476.42 219.48 475.327 219.48C474.26 219.48 473.26 219.68 472.327 220.08C471.42 220.453 470.634 221 469.967 221.72C469.3 222.44 468.78 223.307 468.407 224.32C468.034 225.307 467.847 226.413 467.847 227.64C467.847 228.867 468.034 229.987 468.407 231C468.78 231.987 469.3 232.84 469.967 233.56C470.634 234.28 471.42 234.84 472.327 235.24C473.26 235.613 474.26 235.8 475.327 235.8ZM505.075 242.6C503.422 242.6 501.875 242.4 500.435 242C498.995 241.573 497.742 240.92 496.675 240.04C495.635 239.133 494.809 237.987 494.195 236.6C493.582 235.213 493.275 233.547 493.275 231.6V213.28H500.715V230.6C500.715 231.613 500.822 232.467 501.035 233.16C501.275 233.827 501.582 234.36 501.955 234.76C502.355 235.16 502.822 235.453 503.355 235.64C503.889 235.8 504.462 235.88 505.075 235.88C505.689 235.88 506.262 235.8 506.795 235.64C507.329 235.453 507.782 235.16 508.155 234.76C508.555 234.36 508.862 233.827 509.075 233.16C509.315 232.467 509.435 231.613 509.435 230.6V213.28H516.875V231.6C516.875 233.547 516.569 235.213 515.955 236.6C515.342 237.987 514.502 239.133 513.435 240.04C512.395 240.92 511.155 241.573 509.715 242C508.275 242.4 506.729 242.6 505.075 242.6ZM544.929 242H535.849L528.609 230.88V242H521.169V213.28H531.009C533.169 213.28 534.942 213.48 536.329 213.88C537.742 214.28 538.915 214.88 539.849 215.68C540.649 216.373 541.275 217.267 541.729 218.36C542.209 219.453 542.449 220.787 542.449 222.36C542.449 223.96 542.102 225.48 541.409 226.92C540.715 228.36 539.609 229.453 538.089 230.2C537.902 230.28 537.715 230.36 537.529 230.44C537.369 230.52 537.195 230.587 537.009 230.64L544.929 242ZM533.929 220.2C533.395 219.827 532.742 219.613 531.969 219.56C531.195 219.48 530.515 219.44 529.929 219.44H528.609V226.12H529.929C530.195 226.12 530.515 226.12 530.889 226.12C531.262 226.093 531.635 226.053 532.009 226C532.409 225.947 532.782 225.867 533.129 225.76C533.502 225.653 533.822 225.493 534.089 225.28C534.702 224.8 535.009 223.973 535.009 222.8C535.009 222.133 534.915 221.6 534.729 221.2C534.542 220.773 534.275 220.44 533.929 220.2ZM22.16 269.28H29.6V298H20.76L9.84 279.88V298H2.4V269.28H11.16L22.16 287.28V269.28ZM51.6322 275.76H41.6322V280.44H50.5522V286.84H41.6322V291.52H51.6322V298H34.1922V269.28H51.6322V275.76ZM53.3519 298L64.5519 283.04L53.5519 269.28H62.5919L68.9519 277.6L75.3119 269.28H84.3519L73.3519 283.04L84.5519 298H75.2319L68.9519 289.16L62.6719 298H53.3519ZM105.119 269.28V275.76H98.6791V298H91.2391V275.76H84.7591V269.28H105.119ZM136.525 271.68C137.325 272.373 137.952 273.267 138.405 274.36C138.885 275.453 139.125 276.787 139.125 278.36C139.125 280.2 138.779 281.893 138.085 283.44C137.392 284.96 136.285 286.133 134.765 286.96C134.179 287.28 133.552 287.533 132.885 287.72C132.219 287.907 131.565 288.04 130.925 288.12C130.285 288.2 129.685 288.253 129.125 288.28C128.565 288.28 128.085 288.28 127.685 288.28H125.285V298H117.845V269.28H127.685C129.845 269.28 131.619 269.48 133.005 269.88C134.419 270.28 135.592 270.88 136.525 271.68ZM130.765 281.28C131.379 280.8 131.685 279.973 131.685 278.8C131.685 278.133 131.592 277.6 131.405 277.2C131.219 276.773 130.952 276.44 130.605 276.2C130.072 275.827 129.419 275.613 128.645 275.56C127.872 275.48 127.192 275.44 126.605 275.44H125.285V282.12H126.605C126.872 282.12 127.192 282.12 127.565 282.12C127.939 282.093 128.312 282.053 128.685 282C129.085 281.947 129.459 281.867 129.805 281.76C130.179 281.653 130.499 281.493 130.765 281.28ZM165.937 298H156.857L149.617 286.88V298H142.177V269.28H152.017C154.177 269.28 155.95 269.48 157.337 269.88C158.75 270.28 159.923 270.88 160.857 271.68C161.657 272.373 162.283 273.267 162.737 274.36C163.217 275.453 163.457 276.787 163.457 278.36C163.457 279.96 163.11 281.48 162.417 282.92C161.723 284.36 160.617 285.453 159.097 286.2C158.91 286.28 158.723 286.36 158.537 286.44C158.377 286.52 158.203 286.587 158.017 286.64L165.937 298ZM154.937 276.2C154.403 275.827 153.75 275.613 152.977 275.56C152.203 275.48 151.523 275.44 150.937 275.44H149.617V282.12H150.937C151.203 282.12 151.523 282.12 151.897 282.12C152.27 282.093 152.643 282.053 153.017 282C153.417 281.947 153.79 281.867 154.137 281.76C154.51 281.653 154.83 281.493 155.097 281.28C155.71 280.8 156.017 279.973 156.017 278.8C156.017 278.133 155.923 277.6 155.737 277.2C155.55 276.773 155.283 276.44 154.937 276.2ZM181.477 298.6C179.317 298.6 177.317 298.24 175.477 297.52C173.664 296.8 172.09 295.787 170.757 294.48C169.45 293.147 168.424 291.56 167.677 289.72C166.93 287.88 166.557 285.853 166.557 283.64C166.557 281.427 166.93 279.4 167.677 277.56C168.424 275.72 169.45 274.147 170.757 272.84C172.09 271.507 173.664 270.48 175.477 269.76C177.317 269.04 179.317 268.68 181.477 268.68C183.637 268.68 185.624 269.04 187.437 269.76C189.277 270.48 190.85 271.507 192.157 272.84C193.49 274.147 194.53 275.72 195.277 277.56C196.024 279.4 196.397 281.427 196.397 283.64C196.397 285.853 196.024 287.88 195.277 289.72C194.53 291.56 193.49 293.147 192.157 294.48C190.85 295.787 189.277 296.8 187.437 297.52C185.624 298.24 183.637 298.6 181.477 298.6ZM181.477 291.8C182.57 291.8 183.57 291.613 184.477 291.24C185.384 290.84 186.17 290.28 186.837 289.56C187.504 288.84 188.024 287.987 188.397 287C188.77 285.987 188.957 284.867 188.957 283.64C188.957 282.413 188.77 281.307 188.397 280.32C188.024 279.307 187.504 278.44 186.837 277.72C186.17 277 185.384 276.453 184.477 276.08C183.57 275.68 182.57 275.48 181.477 275.48C180.41 275.48 179.41 275.68 178.477 276.08C177.57 276.453 176.784 277 176.117 277.72C175.45 278.44 174.93 279.307 174.557 280.32C174.184 281.307 173.997 282.413 173.997 283.64C173.997 284.867 174.184 285.987 174.557 287C174.93 287.987 175.45 288.84 176.117 289.56C176.784 290.28 177.57 290.84 178.477 291.24C179.41 291.613 180.41 291.8 181.477 291.8ZM205.825 298.6C204.439 298.6 203.065 298.427 201.705 298.08C200.372 297.733 198.932 297.12 197.385 296.24L200.505 290.16C201.252 290.693 201.959 291.093 202.625 291.36C203.292 291.627 204.025 291.76 204.825 291.76C205.759 291.76 206.425 291.493 206.825 290.96C207.225 290.4 207.425 289.333 207.425 287.76V269.28H214.865V289.2C214.865 290.747 214.639 292.107 214.185 293.28C213.759 294.453 213.145 295.44 212.345 296.24C211.545 297.013 210.585 297.6 209.465 298C208.372 298.4 207.159 298.6 205.825 298.6ZM236.712 275.76H226.712V280.44H235.632V286.84H226.712V291.52H236.712V298H219.272V269.28H236.712V275.76ZM254.432 298.6C252.272 298.6 250.272 298.24 248.432 297.52C246.618 296.8 245.045 295.787 243.712 294.48C242.405 293.147 241.378 291.56 240.632 289.72C239.885 287.88 239.512 285.853 239.512 283.64C239.512 281.427 239.885 279.4 240.632 277.56C241.378 275.72 242.405 274.147 243.712 272.84C245.045 271.507 246.618 270.48 248.432 269.76C250.272 269.04 252.272 268.68 254.432 268.68C256.138 268.68 257.738 268.907 259.232 269.36C260.725 269.813 262.072 270.467 263.272 271.32C264.498 272.147 265.552 273.16 266.432 274.36C267.338 275.533 268.032 276.853 268.512 278.32L261.512 280.8C261.032 279.147 260.165 277.853 258.912 276.92C257.658 275.96 256.165 275.48 254.432 275.48C253.365 275.48 252.365 275.68 251.432 276.08C250.525 276.453 249.738 277 249.072 277.72C248.405 278.44 247.885 279.307 247.512 280.32C247.138 281.307 246.952 282.413 246.952 283.64C246.952 284.867 247.138 285.987 247.512 287C247.885 287.987 248.405 288.84 249.072 289.56C249.738 290.28 250.525 290.84 251.432 291.24C252.365 291.613 253.365 291.8 254.432 291.8C256.165 291.8 257.658 291.333 258.912 290.4C260.165 289.44 261.032 288.133 261.512 286.48L268.512 288.96C268.032 290.427 267.338 291.76 266.432 292.96C265.552 294.133 264.498 295.147 263.272 296C262.072 296.827 260.725 297.467 259.232 297.92C257.738 298.373 256.138 298.6 254.432 298.6ZM289.886 269.28V275.76H283.446V298H276.006V275.76H269.526V269.28H289.886ZM293.062 288.2L292.262 269.28H299.462L298.662 288.2H293.062ZM295.862 298.4C294.795 298.4 293.889 298.027 293.142 297.28C292.395 296.533 292.022 295.627 292.022 294.56C292.022 293.467 292.395 292.547 293.142 291.8C293.889 291.053 294.795 290.68 295.862 290.68C296.955 290.68 297.875 291.053 298.622 291.8C299.369 292.547 299.742 293.467 299.742 294.56C299.742 295.627 299.369 296.533 298.622 297.28C297.875 298.027 296.955 298.4 295.862 298.4Z" fill="#1A0AD7"/>
<rect y="336" width="186" height="62" rx="8" fill="#1A0AD7"/>
<path d="M54.256 373.224C53.424 373.224 52.6613 373.08 51.968 372.792C51.2747 372.504 50.6773 372.104 50.176 371.592C49.6747 371.069 49.2853 370.451 49.008 369.736C48.7307 369.011 48.592 368.211 48.592 367.336C48.592 366.461 48.736 365.667 49.024 364.952C49.312 364.227 49.712 363.608 50.224 363.096C50.736 362.573 51.344 362.173 52.048 361.896C52.7627 361.608 53.5413 361.464 54.384 361.464C55.5147 361.464 56.512 361.709 57.376 362.2C58.24 362.68 58.912 363.352 59.392 364.216L57.376 365.288C57.0773 364.744 56.672 364.323 56.16 364.024C55.648 363.725 55.056 363.576 54.384 363.576C53.872 363.576 53.4027 363.667 52.976 363.848C52.5493 364.029 52.1813 364.285 51.872 364.616C51.5627 364.936 51.3227 365.331 51.152 365.8C50.9813 366.259 50.896 366.771 50.896 367.336C50.896 367.891 50.976 368.403 51.136 368.872C51.296 369.331 51.5253 369.725 51.824 370.056C52.1333 370.387 52.5013 370.643 52.928 370.824C53.3653 371.005 53.8507 371.096 54.384 371.096C55.1413 371.096 55.808 370.893 56.384 370.488C56.96 370.083 57.344 369.475 57.536 368.664H54.48V366.824H59.808V373H58V371.288C57.648 371.864 57.1627 372.333 56.544 372.696C55.9253 373.048 55.1627 373.224 54.256 373.224ZM69.4254 369.416H63.2974C63.3507 370.067 63.5747 370.563 63.9694 370.904C64.364 371.245 64.8494 371.416 65.4254 371.416C65.852 371.416 66.22 371.325 66.5294 371.144C66.8494 370.963 67.084 370.685 67.2334 370.312L69.2814 370.584C69.0147 371.416 68.54 372.056 67.8574 372.504C67.1747 372.941 66.3694 373.16 65.4414 373.16C64.78 373.16 64.1827 373.064 63.6494 372.872C63.116 372.68 62.6574 372.403 62.2734 372.04C61.9 371.677 61.612 371.24 61.4094 370.728C61.2067 370.205 61.1054 369.619 61.1054 368.968C61.1054 368.317 61.2067 367.736 61.4094 367.224C61.6227 366.701 61.916 366.259 62.2894 365.896C62.6734 365.533 63.1267 365.256 63.6494 365.064C64.172 364.872 64.748 364.776 65.3774 364.776C65.9534 364.776 66.4867 364.861 66.9774 365.032C67.4787 365.192 67.9107 365.443 68.2734 365.784C68.636 366.125 68.9187 366.557 69.1214 367.08C69.3347 367.592 69.4414 368.2 69.4414 368.904L69.4254 369.416ZM65.3774 366.408C64.8227 366.408 64.3694 366.547 64.0174 366.824C63.676 367.101 63.452 367.512 63.3454 368.056H67.2494C67.196 367.533 66.9987 367.128 66.6574 366.84C66.316 366.552 65.8894 366.408 65.3774 366.408ZM74.208 373C73.408 373 72.7947 372.781 72.368 372.344C71.9413 371.896 71.728 371.267 71.728 370.456V366.632H70.144V364.936H70.768C71.1413 364.936 71.44 364.84 71.664 364.648C71.888 364.456 72 364.072 72 363.496V362.344H73.952V364.936H75.696V366.632H73.952V370.136C73.952 370.52 74.0427 370.803 74.224 370.984C74.416 371.155 74.6667 371.24 74.976 371.24H75.696V373H74.208ZM85.2014 373.224C84.5934 373.224 84.0227 373.149 83.4894 373C82.956 372.851 82.4814 372.632 82.0654 372.344C81.66 372.056 81.3187 371.704 81.0414 371.288C80.7747 370.872 80.5987 370.392 80.5134 369.848L82.8014 369.368C82.972 370.051 83.2654 370.547 83.6814 370.856C84.0974 371.165 84.6147 371.32 85.2334 371.32C85.8094 371.32 86.252 371.197 86.5614 370.952C86.8814 370.707 87.0414 370.365 87.0414 369.928C87.0414 369.672 86.972 369.459 86.8334 369.288C86.7054 369.107 86.5294 368.952 86.3054 368.824C86.0814 368.696 85.82 368.589 85.5214 368.504C85.2334 368.408 84.9294 368.312 84.6094 368.216C84.1827 368.088 83.7507 367.949 83.3134 367.8C82.876 367.64 82.476 367.437 82.1134 367.192C81.7614 366.936 81.4734 366.621 81.2494 366.248C81.0254 365.864 80.9134 365.384 80.9134 364.808C80.9134 364.307 81.0094 363.853 81.2014 363.448C81.404 363.032 81.6814 362.68 82.0334 362.392C82.3854 362.093 82.8067 361.864 83.2974 361.704C83.788 361.544 84.3267 361.464 84.9134 361.464C85.4147 361.464 85.9054 361.523 86.3854 361.64C86.876 361.747 87.3187 361.923 87.7134 362.168C88.1187 362.403 88.4654 362.717 88.7534 363.112C89.0414 363.496 89.2494 363.96 89.3774 364.504L87.2974 364.984C87.1054 364.419 86.828 364.008 86.4654 363.752C86.1134 363.485 85.644 363.352 85.0574 363.352C84.5134 363.352 84.076 363.475 83.7454 363.72C83.4147 363.955 83.2494 364.275 83.2494 364.68C83.2494 364.904 83.308 365.096 83.4254 365.256C83.5534 365.405 83.7187 365.539 83.9214 365.656C84.1347 365.763 84.38 365.859 84.6574 365.944C84.9347 366.019 85.228 366.099 85.5374 366.184C85.9747 366.301 86.4227 366.44 86.8814 366.6C87.34 366.749 87.756 366.957 88.1294 367.224C88.5134 367.48 88.828 367.811 89.0734 368.216C89.3187 368.621 89.4414 369.139 89.4414 369.768C89.4414 370.291 89.34 370.765 89.1374 371.192C88.9347 371.608 88.6467 371.971 88.2734 372.28C87.9107 372.579 87.468 372.813 86.9454 372.984C86.4227 373.144 85.8414 373.224 85.2014 373.224ZM94.2961 373C93.4961 373 92.8828 372.781 92.4561 372.344C92.0295 371.896 91.8161 371.267 91.8161 370.456V366.632H90.2321V364.936H90.8561C91.2295 364.936 91.5281 364.84 91.7521 364.648C91.9761 364.456 92.0881 364.072 92.0881 363.496V362.344H94.0401V364.936H95.7841V366.632H94.0401V370.136C94.0401 370.52 94.1308 370.803 94.3121 370.984C94.5041 371.155 94.7548 371.24 95.0641 371.24H95.7841V373H94.2961ZM104.365 371.544C104.365 371.789 104.371 372.019 104.381 372.232C104.392 372.435 104.435 372.621 104.509 372.792V373H102.317L102.221 371.896C101.944 372.323 101.555 372.643 101.053 372.856C100.563 373.059 100.051 373.16 99.5173 373.16C99.1973 373.16 98.8773 373.123 98.5573 373.048C98.2479 372.973 97.9653 372.851 97.7093 372.68C97.4639 372.499 97.2666 372.269 97.1173 371.992C96.9679 371.715 96.8933 371.373 96.8933 370.968C96.8933 370.52 96.9839 370.147 97.1653 369.848C97.3466 369.539 97.5813 369.283 97.8693 369.08C98.1573 368.877 98.4826 368.717 98.8453 368.6C99.2079 368.483 99.5706 368.387 99.9333 368.312L101.405 367.976C101.619 367.923 101.795 367.859 101.933 367.784C102.072 367.709 102.141 367.576 102.141 367.384C102.141 367.011 101.997 366.744 101.709 366.584C101.432 366.424 101.107 366.344 100.733 366.344C100.285 366.344 99.9173 366.451 99.6293 366.664C99.3413 366.867 99.1546 367.171 99.0693 367.576L96.9413 367.256C97.1226 366.392 97.5493 365.763 98.2213 365.368C98.8933 364.973 99.7413 364.776 100.765 364.776C101.939 364.776 102.829 365.027 103.437 365.528C104.056 366.029 104.365 366.765 104.365 367.736V371.544ZM100.173 371.624C100.44 371.624 100.696 371.571 100.941 371.464C101.197 371.357 101.421 371.203 101.613 371C101.816 370.787 101.976 370.525 102.093 370.216C102.211 369.896 102.269 369.528 102.269 369.112L100.285 369.624C99.9759 369.688 99.6986 369.805 99.4533 369.976C99.2186 370.136 99.1013 370.387 99.1013 370.728C99.1013 371.027 99.2026 371.251 99.4053 371.4C99.6079 371.549 99.8639 371.624 100.173 371.624ZM108.406 366.088C108.651 365.693 109.008 365.379 109.478 365.144C109.947 364.899 110.502 364.776 111.142 364.776V366.84C110.192 366.84 109.499 367.021 109.062 367.384C108.624 367.736 108.406 368.376 108.406 369.304V373H106.182V364.936H108.406V366.088ZM115.759 373C114.959 373 114.346 372.781 113.919 372.344C113.493 371.896 113.279 371.267 113.279 370.456V366.632H111.695V364.936H112.319C112.693 364.936 112.991 364.84 113.215 364.648C113.439 364.456 113.551 364.072 113.551 363.496V362.344H115.503V364.936H117.247V366.632H115.503V370.136C115.503 370.52 115.594 370.803 115.775 370.984C115.967 371.155 116.218 371.24 116.527 371.24H117.247V373H115.759ZM126.535 369.416H120.407C120.461 370.067 120.685 370.563 121.079 370.904C121.474 371.245 121.959 371.416 122.535 371.416C122.962 371.416 123.33 371.325 123.639 371.144C123.959 370.963 124.194 370.685 124.343 370.312L126.391 370.584C126.125 371.416 125.65 372.056 124.967 372.504C124.285 372.941 123.479 373.16 122.551 373.16C121.89 373.16 121.293 373.064 120.759 372.872C120.226 372.68 119.767 372.403 119.383 372.04C119.01 371.677 118.722 371.24 118.519 370.728C118.317 370.205 118.215 369.619 118.215 368.968C118.215 368.317 118.317 367.736 118.519 367.224C118.733 366.701 119.026 366.259 119.399 365.896C119.783 365.533 120.237 365.256 120.759 365.064C121.282 364.872 121.858 364.776 122.487 364.776C123.063 364.776 123.597 364.861 124.087 365.032C124.589 365.192 125.021 365.443 125.383 365.784C125.746 366.125 126.029 366.557 126.231 367.08C126.445 367.592 126.551 368.2 126.551 368.904L126.535 369.416ZM122.487 366.408C121.933 366.408 121.479 366.547 121.127 366.824C120.786 367.101 120.562 367.512 120.455 368.056H124.359C124.306 367.533 124.109 367.128 123.767 366.84C123.426 366.552 122.999 366.408 122.487 366.408ZM134.131 361H136.339V373H134.131V372.024C133.886 372.397 133.539 372.68 133.091 372.872C132.643 373.064 132.142 373.16 131.587 373.16C131.043 373.16 130.531 373.069 130.051 372.888C129.582 372.696 129.171 372.419 128.819 372.056C128.467 371.693 128.185 371.256 127.971 370.744C127.769 370.221 127.667 369.635 127.667 368.984C127.667 368.323 127.769 367.736 127.971 367.224C128.185 366.701 128.467 366.259 128.819 365.896C129.171 365.533 129.582 365.256 130.051 365.064C130.531 364.872 131.043 364.776 131.587 364.776C132.142 364.776 132.643 364.877 133.091 365.08C133.539 365.272 133.886 365.555 134.131 365.928V361ZM132.067 371.32C132.686 371.32 133.198 371.117 133.603 370.712C134.019 370.296 134.227 369.72 134.227 368.984C134.227 368.248 134.019 367.667 133.603 367.24C133.198 366.813 132.686 366.6 132.067 366.6C131.438 366.6 130.915 366.813 130.499 367.24C130.094 367.667 129.891 368.248 129.891 368.984C129.891 369.72 130.094 370.296 130.499 370.712C130.915 371.117 131.438 371.32 132.067 371.32Z" fill="white"/>
</svg>
