<svg width="1512" height="380" viewBox="0 0 1512 380" fill="none" xmlns="http://www.w3.org/2000/svg">
<rect y="255" width="12" height="125" fill="#BBB6FC" fill-opacity="0.3"/>
<rect x="16" y="216" width="12" height="164" fill="#BBB6FC" fill-opacity="0.3"/>
<rect x="32" y="244" width="12" height="136" fill="#BBB6FC" fill-opacity="0.3"/>
<rect x="48" y="207" width="12" height="173" fill="#BBB6FC" fill-opacity="0.3"/>
<rect x="64" y="157" width="12" height="223" fill="#BBB6FC" fill-opacity="0.3"/>
<rect x="80" y="244" width="12" height="136" fill="#BBB6FC" fill-opacity="0.3"/>
<rect x="96" y="223" width="12" height="157" fill="#BBB6FC" fill-opacity="0.3"/>
<rect x="112" y="279" width="12" height="101" fill="#BBB6FC" fill-opacity="0.3"/>
<rect x="128" y="236" width="12" height="144" fill="#BBB6FC" fill-opacity="0.3"/>
<rect x="144" y="207" width="12" height="173" fill="#BBB6FC" fill-opacity="0.3"/>
<rect x="160" y="279" width="12" height="101" fill="#BBB6FC" fill-opacity="0.3"/>
<rect x="176" y="236" width="12" height="144" fill="#BBB6FC" fill-opacity="0.3"/>
<rect x="192" y="303" width="12" height="77" fill="#BBB6FC" fill-opacity="0.3"/>
<rect x="208" y="267" width="12" height="113" fill="#BBB6FC" fill-opacity="0.3"/>
<rect x="224" y="292" width="12" height="88" fill="#BBB6FC" fill-opacity="0.3"/>
<rect x="240" y="249" width="12" height="131" fill="#BBB6FC" fill-opacity="0.3"/>
<rect x="256" y="229" width="12" height="151" fill="#BBB6FC" fill-opacity="0.3"/>
<rect x="272" y="207" width="12" height="173" fill="#BBB6FC" fill-opacity="0.3"/>
<rect x="288" y="229" width="12" height="151" fill="#BBB6FC" fill-opacity="0.3"/>
<rect x="304" y="190" width="12" height="190" fill="#BBB6FC" fill-opacity="0.3"/>
<rect x="320" y="244" width="12" height="136" fill="#BBB6FC" fill-opacity="0.3"/>
<rect x="336" y="185" width="12" height="195" fill="#BBB6FC" fill-opacity="0.3"/>
<rect x="352" y="179" width="12" height="201" fill="#BBB6FC" fill-opacity="0.3"/>
<rect x="368" y="229" width="12" height="151" fill="#BBB6FC" fill-opacity="0.3"/>
<rect x="384" y="207" width="12" height="173" fill="#BBB6FC" fill-opacity="0.3"/>
<rect x="400" y="145" width="12" height="235" fill="#BBB6FC" fill-opacity="0.3"/>
<rect x="416" y="111" width="12" height="269" fill="#BBB6FC" fill-opacity="0.3"/>
<rect x="432" y="82" width="12" height="298" fill="#BBB6FC" fill-opacity="0.3"/>
<rect x="448" y="51" width="12" height="329" fill="#BBB6FC" fill-opacity="0.3"/>
<rect x="464" y="37" width="12" height="343" fill="#BBB6FC" fill-opacity="0.3"/>
<rect x="480" y="20" width="12" height="360" fill="#BBB6FC" fill-opacity="0.3"/>
<rect x="496" y="12" width="12" height="368" fill="#BBB6FC" fill-opacity="0.3"/>
<rect x="512" y="51" width="12" height="329" fill="#BBB6FC" fill-opacity="0.3"/>
<rect x="528" y="62" width="12" height="318" fill="#BBB6FC" fill-opacity="0.3"/>
<rect x="544" y="101" width="12" height="279" fill="#BBB6FC" fill-opacity="0.3"/>
<rect x="560" y="132" width="12" height="248" fill="#BBB6FC" fill-opacity="0.3"/>
<rect x="576" y="150" width="12" height="230" fill="#BBB6FC" fill-opacity="0.3"/>
<rect x="592" y="179" width="12" height="201" fill="#BBB6FC" fill-opacity="0.3"/>
<rect x="608" y="207" width="12" height="173" fill="#BBB6FC" fill-opacity="0.3"/>
<rect x="624" y="179" width="12" height="201" fill="#BBB6FC" fill-opacity="0.3"/>
<rect x="640" y="158" width="12" height="222" fill="#BBB6FC" fill-opacity="0.3"/>
<rect x="656" y="126" width="12" height="254" fill="#BBB6FC" fill-opacity="0.3"/>
<rect x="672" y="101" width="12" height="279" fill="#BBB6FC" fill-opacity="0.3"/>
<rect x="688" y="82" width="12" height="298" fill="#BBB6FC" fill-opacity="0.3"/>
<rect x="704" y="62" width="12" height="318" fill="#BBB6FC" fill-opacity="0.3"/>
<rect x="720" y="44" width="12" height="336" fill="#BBB6FC" fill-opacity="0.3"/>
<rect x="736" y="27" width="12" height="353" fill="#BBB6FC" fill-opacity="0.3"/>
<rect x="752" y="12" width="12" height="368" fill="#BBB6FC" fill-opacity="0.3"/>
<rect x="768" width="12" height="380" fill="#BBB6FC" fill-opacity="0.3"/>
<rect x="784" y="12" width="12" height="368" fill="#BBB6FC" fill-opacity="0.3"/>
<rect x="800" y="37" width="12" height="343" fill="#BBB6FC" fill-opacity="0.3"/>
<rect x="816" y="62" width="12" height="318" fill="#BBB6FC" fill-opacity="0.3"/>
<rect x="832" y="72" width="12" height="308" fill="#BBB6FC" fill-opacity="0.3"/>
<rect x="848" y="88" width="12" height="292" fill="#BBB6FC" fill-opacity="0.3"/>
<rect x="864" y="111" width="12" height="269" fill="#BBB6FC" fill-opacity="0.3"/>
<rect x="880" y="126" width="12" height="254" fill="#BBB6FC" fill-opacity="0.3"/>
<rect x="896" y="150" width="12" height="230" fill="#BBB6FC" fill-opacity="0.3"/>
<rect x="912" y="166" width="12" height="214" fill="#BBB6FC" fill-opacity="0.3"/>
<rect x="928" y="150" width="12" height="230" fill="#BBB6FC" fill-opacity="0.3"/>
<rect x="944" y="137" width="12" height="243" fill="#BBB6FC" fill-opacity="0.3"/>
<rect x="960" y="126" width="12" height="254" fill="#BBB6FC" fill-opacity="0.3"/>
<rect x="976" y="111" width="12" height="269" fill="#BBB6FC" fill-opacity="0.3"/>
<rect x="992" y="101" width="12" height="279" fill="#BBB6FC" fill-opacity="0.3"/>
<rect x="1008" y="72" width="12" height="308" fill="#BBB6FC" fill-opacity="0.3"/>
<rect x="1024" y="51" width="12" height="329" fill="#BBB6FC" fill-opacity="0.3"/>
<rect x="1040" y="27" width="12" height="353" fill="#BBB6FC" fill-opacity="0.3"/>
<rect x="1056" y="62" width="12" height="318" fill="#BBB6FC" fill-opacity="0.3"/>
<rect x="1072" y="37" width="12" height="343" fill="#BBB6FC" fill-opacity="0.3"/>
<rect x="1088" y="18" width="12" height="362" fill="#BBB6FC" fill-opacity="0.3"/>
<rect x="1104" y="62" width="12" height="318" fill="#BBB6FC" fill-opacity="0.3"/>
<rect x="1120" y="88" width="12" height="292" fill="#BBB6FC" fill-opacity="0.3"/>
<rect x="1136" y="111" width="12" height="269" fill="#BBB6FC" fill-opacity="0.3"/>
<rect x="1152" y="137" width="12" height="243" fill="#BBB6FC" fill-opacity="0.3"/>
<rect x="1168" y="161" width="12" height="219" fill="#BBB6FC" fill-opacity="0.3"/>
<rect x="1184" y="188" width="12" height="192" fill="#BBB6FC" fill-opacity="0.3"/>
<rect x="1200" y="221" width="12" height="159" fill="#BBB6FC" fill-opacity="0.3"/>
<rect x="1216" y="236" width="12" height="144" fill="#BBB6FC" fill-opacity="0.3"/>
<rect x="1232" y="254" width="12" height="126" fill="#BBB6FC" fill-opacity="0.3"/>
<rect x="1248" y="268" width="12" height="112" fill="#BBB6FC" fill-opacity="0.3"/>
<rect x="1264" y="188" width="12" height="192" fill="#BBB6FC" fill-opacity="0.3"/>
<rect x="1280" y="299" width="12" height="81" fill="#BBB6FC" fill-opacity="0.3"/>
<rect x="1296" y="207" width="12" height="173" fill="#BBB6FC" fill-opacity="0.3"/>
<rect x="1312" y="268" width="12" height="112" fill="#BBB6FC" fill-opacity="0.3"/>
<rect x="1328" y="221" width="12" height="159" fill="#BBB6FC" fill-opacity="0.3"/>
<rect x="1344" y="299" width="12" height="81" fill="#BBB6FC" fill-opacity="0.3"/>
<rect x="1360" y="273" width="12" height="107" fill="#BBB6FC" fill-opacity="0.3"/>
<rect x="1376" y="246" width="12" height="134" fill="#BBB6FC" fill-opacity="0.3"/>
<rect x="1392" y="283" width="12" height="97" fill="#BBB6FC" fill-opacity="0.3"/>
<rect x="1408" y="254" width="12" height="126" fill="#BBB6FC" fill-opacity="0.3"/>
<rect x="1424" y="207" width="12" height="173" fill="#BBB6FC" fill-opacity="0.3"/>
<rect x="1440" y="183" width="12" height="197" fill="#BBB6FC" fill-opacity="0.3"/>
<rect x="1456" y="230" width="12" height="150" fill="#BBB6FC" fill-opacity="0.3"/>
<rect x="1472" y="246" width="12" height="134" fill="#BBB6FC" fill-opacity="0.3"/>
<rect x="1488" y="216" width="12" height="164" fill="#BBB6FC" fill-opacity="0.3"/>
<rect x="1504" y="246" width="12" height="134" fill="#BBB6FC" fill-opacity="0.3"/>
</svg>
